<svg width="36" height="57" viewBox="0 0 36 57" fill="none" xmlns="http://www.w3.org/2000/svg">
<path d="M30.5211 52.2928L15.1227 55.0633C13.6927 55.2784 12.4067 55.0137 11.2649 54.2692C10.1187 53.5011 9.36699 52.4151 9.00975 51.0114C8.07395 46.8729 7.13138 42.2335 6.18203 37.0933C5.29393 32.2846 4.5199 27.4304 3.85992 22.5306C3.19558 17.6072 2.82045 13.2549 2.73454 9.47392C2.84732 6.63606 4.3053 4.84804 7.10847 4.10986C8.55344 3.84299 9.88146 4.13664 11.0925 4.99078C12.2992 5.82125 13.0316 6.93527 13.2898 8.33286C13.351 8.66449 13.3745 8.99084 13.3603 9.31191C13.4211 12.5587 13.7933 16.6297 14.4769 21.5251C15.1606 26.4205 15.953 31.3081 16.8542 36.1878L18.3165 43.7074L28.6339 41.8754C30.0789 41.6086 31.3929 41.8925 32.5759 42.7274C33.7826 43.5578 34.5194 44.6956 34.7862 46.1405C35.0531 47.5855 34.7594 48.9135 33.9053 50.1246C33.0705 51.3076 31.9424 52.0303 30.5211 52.2928ZM5.58705 18.3535C5.72918 18.3273 5.83887 18.258 5.91612 18.1458C5.99337 18.0335 6.01887 17.9063 5.99262 17.7642C5.68083 14.8823 5.48844 12.7132 5.41545 11.2569C5.36177 9.77257 5.45572 8.68964 5.69729 8.00814C5.93887 7.32663 6.35847 6.74696 6.95611 6.26915C7.11936 6.09202 7.18568 5.92055 7.15506 5.75473C7.13318 5.63629 7.06612 5.53845 6.95387 5.4612C6.83724 5.36026 6.69383 5.31325 6.52364 5.32019C6.47627 5.32894 6.43108 5.34953 6.38808 5.38197C6.3407 5.39072 6.2977 5.42316 6.25907 5.47928C5.25074 6.25341 4.64222 7.46812 4.43351 9.12339C4.2485 10.7743 4.42472 13.718 4.9622 17.9545C4.98407 18.073 5.05114 18.1708 5.16339 18.2481C5.27564 18.3253 5.39317 18.3648 5.51599 18.3667L5.58705 18.3535ZM6.14661 23.1739C6.26505 23.152 6.36509 23.0968 6.44671 23.0082C6.52397 22.896 6.56131 22.7666 6.55875 22.6201C6.53869 22.3788 6.52082 22.1494 6.50513 21.9318C6.48069 21.6669 6.44223 21.3923 6.38973 21.108C6.36092 20.8194 6.32117 20.4716 6.27049 20.0645C6.24424 19.9224 6.17499 19.8127 6.06273 19.7354C5.95048 19.6582 5.81145 19.6349 5.64563 19.6655C5.50351 19.6917 5.39382 19.761 5.31656 19.8732C5.23931 19.9855 5.21381 20.1127 5.24006 20.2548L5.47967 22.7459C5.50592 22.888 5.57736 23.0095 5.69398 23.1105C5.80623 23.1877 5.93342 23.2132 6.07555 23.187L6.14661 23.1739ZM24.8627 44.3356L28.7515 43.5072C28.8937 43.4809 29.0056 43.4235 29.0872 43.335C29.1644 43.2227 29.1899 43.0955 29.1637 42.9534L29.1506 42.8823C29.1243 42.7402 29.0432 42.6327 28.9073 42.5598C28.795 42.4826 28.6678 42.4571 28.5257 42.4833L24.6659 43.2697C24.5237 43.2959 24.4044 43.3792 24.3078 43.5195C24.2306 43.6318 24.2051 43.759 24.2313 43.9011C24.2576 44.0432 24.329 44.1647 24.4456 44.2657C24.5816 44.3386 24.7206 44.3619 24.8627 44.3356Z" fill="#222222"/>
</svg>
