<svg width="56" height="63" viewBox="0 0 56 63" fill="none" xmlns="http://www.w3.org/2000/svg">
<path d="M43.5335 54.7164L42.8577 54.8426C40.7535 54.9548 39.0859 54.1561 37.8547 52.4464C36.1701 49.6815 34.4365 46.4576 32.6538 42.7747C31.9864 41.4492 31.3044 40.1147 30.6078 38.7714L30.2018 38.0145L30.1621 38.6189C30.1294 39.8164 30.0968 41.0138 30.0641 42.2113C30.0925 46.8388 29.7994 51.1103 29.1848 55.0259C28.7374 56.968 27.5704 58.291 25.6836 58.995L25.2004 59.149C23.5381 59.551 21.9694 59.162 20.4946 57.982C17.5124 55.2831 15.0279 52.0796 13.041 48.3718C11.0718 44.6349 9.3783 40.7569 7.9605 36.738C6.5427 32.719 5.3454 28.8946 4.36862 25.2647C3.41525 21.6291 2.66117 18.664 2.10638 16.3695L2.0894 16.2992C1.74974 14.8944 1.941 13.5842 2.66321 12.3687C3.38541 11.1532 4.46385 10.3349 5.89853 9.91366L5.96877 9.89668C7.39702 9.55135 8.73908 9.77208 9.99497 10.5589C11.2452 11.3222 12.0401 12.4063 12.3798 13.8112L12.3968 13.8814C12.9516 16.176 13.683 19.0474 14.5911 22.4957C15.5226 25.9383 16.6402 29.4846 17.944 33.1345C18.4646 34.57 19.0235 35.959 19.6207 37.3016C19.6721 34.4391 19.8519 31.5952 20.16 28.7698C20.486 25.9154 21.1176 23.1977 22.0548 20.6167C22.8164 18.8465 24.0518 17.7547 25.761 17.3415L26.1473 17.2481C28.1182 16.9946 29.7697 17.6238 31.1018 19.1356C33.9882 22.8738 36.5615 27.0595 38.8217 31.6925C38.7615 30.4184 38.6573 29.1673 38.509 27.9392C38.1073 24.7403 37.5849 21.6572 36.9419 18.6901C36.3222 15.7173 35.7322 13.0719 35.1717 10.7539L34.6283 8.50621C34.2886 7.10137 34.5005 5.77385 35.2638 4.52362C36.0272 3.2734 37.123 2.47562 38.5513 2.1303C39.9795 1.78497 41.3187 1.99399 42.569 2.75736C43.8192 3.52073 44.6141 4.60484 44.9538 6.00967L45.4378 8.01156C46.0039 10.3529 46.6279 13.1388 47.3098 16.3692C47.9861 19.5761 48.5526 22.9954 49.0094 26.6272C49.5673 30.7797 49.7801 34.9908 49.6477 39.2607C49.533 43.5015 48.736 47.585 47.2566 51.5114C46.4369 53.2461 45.1959 54.3145 43.5335 54.7164ZM7.31415 25.1473C7.45464 25.1133 7.56038 25.0382 7.63139 24.9219C7.70241 24.8056 7.72376 24.6889 7.69545 24.5718L7.67847 24.5016C6.94923 22.1005 6.40912 20.1741 6.05813 18.7225C5.80905 17.6923 5.65774 16.8615 5.6042 16.23C5.54578 15.4759 5.58552 14.8715 5.72342 14.4169C5.87907 13.9332 6.16028 13.4562 6.56706 12.9862C6.67924 12.8351 6.71834 12.6894 6.68438 12.5489C6.65041 12.4084 6.57528 12.3026 6.45898 12.2316C6.33702 12.1372 6.19409 12.1098 6.03019 12.1494C5.93653 12.1721 5.83966 12.2327 5.73958 12.3312C4.83803 13.3175 4.44208 14.6523 4.55173 16.3358C4.62791 17.0609 4.79903 17.9736 5.0651 19.0741C5.41609 20.5258 5.95054 22.4287 6.66846 24.783C6.70242 24.9234 6.77756 25.0292 6.89386 25.1002C7.01016 25.1712 7.12684 25.1926 7.24391 25.1643L7.31415 25.1473ZM39.728 19.9123C39.8685 19.8783 39.9743 19.8032 40.0453 19.6869C40.1106 19.5472 40.1263 19.4071 40.0924 19.2666L39.9395 18.6344C39.5545 17.0423 39.1683 15.2398 38.7808 13.227C38.3876 11.1908 38.0967 9.52631 37.908 8.23365L37.891 8.16341C37.8571 8.02293 37.7819 7.91718 37.6656 7.84617C37.5728 7.7695 37.4678 7.74531 37.3507 7.77362L37.2805 7.7906C37.14 7.82457 37.0342 7.8997 36.9632 8.016C36.8922 8.1323 36.8592 8.25182 36.864 8.37455C37.0414 9.62037 37.3096 11.1912 37.6689 13.0869C38.0224 14.9593 38.3945 16.7032 38.7851 18.3188L39.0738 19.5129C39.1078 19.6534 39.1858 19.7708 39.3077 19.8652C39.424 19.9363 39.5641 19.9519 39.728 19.9123ZM23.6149 23.9941C23.8256 23.9431 23.9467 23.7775 23.9781 23.4973C23.9374 22.7141 24.1042 21.9179 24.4786 21.1087C24.8529 20.2995 25.4886 19.6997 26.3855 19.3094C26.5026 19.2811 26.5966 19.2088 26.6676 19.0925C26.733 18.9528 26.7487 18.8127 26.7147 18.6722C26.663 18.5608 26.579 18.4696 26.4627 18.3986C26.3407 18.3041 26.2095 18.2739 26.069 18.3079L26.0073 18.36C24.835 18.8417 24.0141 19.5978 23.5446 20.6282C23.0694 21.6353 22.8574 22.6035 22.9086 23.5329L22.9256 23.6031C22.9539 23.7202 23.0173 23.8288 23.1159 23.9289C23.2088 24.0055 23.3283 24.0386 23.4744 24.028L23.6149 23.9941ZM9.05758 29.7442C9.1924 29.6868 9.28361 29.6028 9.33121 29.4922C9.40222 29.3759 9.42357 29.2592 9.39526 29.1421L8.51988 26.7516C8.4625 26.6168 8.37566 26.5139 8.25936 26.4429C8.14306 26.3719 8.01467 26.3533 7.87419 26.3873C7.7337 26.4213 7.63079 26.5081 7.56544 26.6478C7.49443 26.7641 7.4759 26.8925 7.50987 27.033L7.52685 27.1032C7.6586 27.4431 7.76731 27.739 7.853 27.9909C7.93868 28.2428 8.02154 28.483 8.10156 28.7115C8.205 28.9343 8.29957 29.1716 8.38525 29.4235C8.44263 29.5583 8.52947 29.6613 8.64577 29.7323C8.75641 29.7799 8.87026 29.7895 8.98733 29.7612L9.05758 29.7442Z" fill="#222222"/>
</svg>
