<svg width="46" height="58" viewBox="0 0 46 58" fill="none" xmlns="http://www.w3.org/2000/svg">
<path d="M33.2015 56.3907C31.7707 56.1861 30.616 55.4978 29.7373 54.3258C28.8585 53.1537 28.5232 51.8404 28.7312 50.3858L28.7414 50.3143C29.5292 44.8059 30.3154 39.0539 31.0999 33.0584C29.4233 36.4443 27.9614 39.3499 26.7141 41.7752C26.1791 42.7937 25.4125 43.5601 24.4143 44.0744C23.4195 44.5648 22.3617 44.7298 21.2409 44.5695C20.0759 44.3786 19.0881 43.8844 18.2774 43.0872C17.4702 42.266 16.9781 41.2832 16.8011 40.1385C16.3383 37.2496 15.8108 33.8769 15.2186 30.0205C13.9776 36.3158 12.953 42.2892 12.1447 47.9407L12.1345 48.0122C11.9264 49.4668 11.2364 50.6335 10.0644 51.5122C8.89236 52.3909 7.59097 52.728 6.16022 52.5233C4.70562 52.3153 3.53896 51.6253 2.66023 50.4532C1.7815 49.2812 1.44616 47.9679 1.65419 46.5133C2.6398 39.6219 3.84516 32.555 5.27028 25.3127C6.6954 18.0704 8.48494 11.4278 10.6389 5.38474C11.5999 2.91849 13.5027 1.77927 16.3472 1.96708C17.2772 2.10009 18.1135 2.46303 18.8561 3.0559C19.6225 3.65218 20.1844 4.40173 20.542 5.30455C22.3705 10.3841 23.7868 15.9644 24.7908 22.0454C26.2493 19.1636 27.7367 16.4198 29.2531 13.814C30.7967 11.1877 32.3675 8.88168 33.9656 6.89587C35.3693 5.41761 36.9774 4.80808 38.7897 5.06727C40.0535 5.24802 41.1043 5.81198 41.9422 6.75916C42.804 7.70975 43.262 8.84593 43.3163 10.1677C43.4279 15.1721 43.1733 20.5256 42.5523 26.2282C41.9587 31.9103 41.2663 37.5176 40.475 43.0498L39.2115 51.8847C39.0035 53.3393 38.3134 54.506 37.1414 55.3847C35.9694 56.2634 34.6561 56.5988 33.2015 56.3907ZM9.62048 15.0577C9.76355 15.0782 9.8896 15.0475 9.99863 14.9658C10.1077 14.8841 10.1724 14.7716 10.1929 14.6286C10.8099 11.8454 11.3417 9.74364 11.7882 8.32314C12.2585 6.90606 12.7407 5.91651 13.2347 5.35449C13.7561 4.77204 14.3881 4.35142 15.1307 4.09263C15.3147 3.99728 15.4186 3.86614 15.4425 3.69921C15.463 3.55614 15.4323 3.43009 15.3506 3.32106C15.2961 3.1916 15.1854 3.11494 15.0185 3.09106C14.9708 3.08424 14.9214 3.08934 14.8703 3.10637C14.8226 3.09955 14.7732 3.10465 14.7221 3.12168C13.9283 3.39749 13.2282 3.8692 12.6217 4.5368C12.0186 5.18056 11.4376 6.26548 10.8787 7.79156C10.3436 9.32106 9.76922 11.5506 9.15556 14.4802C9.13851 14.5994 9.15893 14.7119 9.21683 14.8175C9.29857 14.9265 9.40927 15.0032 9.54894 15.0475L9.62048 15.0577ZM34.4915 9.59911C34.6822 9.6264 34.8526 9.54126 35.0025 9.3437C35.4284 8.7476 35.9088 8.28097 36.4437 7.9438C37.0059 7.58619 37.5169 7.41594 37.9768 7.43305C38.1437 7.45692 38.2817 7.42798 38.3907 7.34624C38.5032 7.24065 38.5696 7.11632 38.5901 6.97325C38.5663 6.62917 38.3994 6.43497 38.0894 6.39063C36.5326 6.38698 35.2158 7.172 34.139 8.7457L34.0317 8.98585C34.0044 9.17661 34.0776 9.34525 34.2513 9.49177L34.4915 9.59911ZM28.4601 19.6137C28.5794 19.6307 28.6918 19.6103 28.7974 19.5524C28.903 19.4945 28.978 19.3957 29.0223 19.2561C29.0939 19.096 29.3477 18.5969 29.7839 17.759C30.2201 16.921 30.7636 15.928 31.4145 14.7801C32.0892 13.6356 32.7809 12.5422 33.4896 11.4999C33.5782 11.3909 33.6651 11.2938 33.7503 11.2086C33.8082 11.1439 33.8389 11.0996 33.8423 11.0758C33.9786 10.9736 34.0552 10.8629 34.0723 10.7437C34.0927 10.6006 34.0621 10.4746 33.9804 10.3655C33.902 10.2327 33.7794 10.1543 33.6125 10.1304C33.4456 10.1065 33.2922 10.1576 33.1526 10.2836C33.0401 10.3892 32.9106 10.5289 32.7641 10.7026C32.7335 10.7469 32.6892 10.8014 32.6312 10.8661C32.2939 11.3532 32.0332 11.7296 31.8492 11.9953C31.6925 12.2405 31.5681 12.4296 31.4761 12.5624C31.408 12.6987 31.3262 12.8451 31.2308 13.0018C31.0979 13.2505 30.7946 13.7546 30.321 14.5142L28.8335 17.258C28.7041 17.4829 28.5882 17.6975 28.486 17.9018C28.2304 18.3276 28.0685 18.6938 28.0003 19.0004C27.9833 19.1196 28.002 19.244 28.0565 19.3734C28.1382 19.4825 28.2489 19.5591 28.3886 19.6034L28.4601 19.6137ZM8.50064 19.8251C8.64372 19.8456 8.76977 19.8149 8.87879 19.7332C9.01166 19.6549 9.08833 19.5442 9.10879 19.4011L9.67638 16.9637C9.69685 16.8207 9.65599 16.681 9.55381 16.5447C9.47548 16.4118 9.35285 16.3335 9.18593 16.3096C9.06329 16.3164 8.94746 16.3606 8.83843 16.4424C8.72941 16.5241 8.65445 16.6229 8.61355 16.7387L8.0715 19.2527C8.05444 19.372 8.08679 19.4861 8.16853 19.5951C8.25027 19.7041 8.36098 19.7808 8.50064 19.8251ZM20.0608 42.8677C20.3708 42.9121 20.5616 42.769 20.6332 42.4386C20.6502 42.3193 20.6179 42.2052 20.5362 42.0962C20.4783 41.9906 20.3914 41.9173 20.2756 41.8764C19.8634 41.6958 19.4717 41.3721 19.1005 40.9054C18.7531 40.442 18.5743 39.9906 18.5641 39.5511C18.5846 39.4081 18.5539 39.282 18.4722 39.173C18.3905 39.064 18.2781 38.9992 18.135 38.9787C17.9919 38.9583 17.8539 38.9872 17.7211 39.0655C17.612 39.1473 17.5473 39.2597 17.5268 39.4028C17.4858 40.1999 17.6986 40.9239 18.1652 41.5746C18.6591 42.2049 19.2433 42.6291 19.9177 42.8473L20.0608 42.8677Z" fill="#222222"/>
</svg>
