<svg width="28" height="53" viewBox="0 0 28 53" fill="none" xmlns="http://www.w3.org/2000/svg">
<path d="M11.5442 52.4353C9.97847 52.4452 8.53265 52.37 7.20675 52.2097C7.13433 52.1861 7.06199 52.1745 6.98973 52.175C6.36298 52.1066 5.56641 51.8467 4.6 51.3951C4.02006 51.1097 3.37831 50.5717 2.67475 49.7812C1.99512 48.9665 1.56728 47.9695 1.39122 46.7902L1.42781 46.8622C0.913559 41.7104 0.634342 35.6297 0.590161 28.6201C0.563136 24.3324 0.609362 20.2009 0.728839 16.2254C0.872252 12.2257 1.06893 9.0327 1.31887 6.64631L1.31955 6.75471C1.38726 6.03161 1.58753 5.31972 1.92036 4.61905C2.27712 3.89413 2.70691 3.28919 3.20973 2.80424C4.31216 1.906 5.24841 1.39423 6.01847 1.26893C6.78792 1.04728 7.48571 0.922436 8.11185 0.894401C8.73784 0.842277 9.40011 0.814014 10.0987 0.809611C10.4117 0.783549 10.7729 0.769228 11.1824 0.766647C12.3386 0.759359 13.6154 0.7754 15.0129 0.814771C16.7957 0.851712 18.8554 0.862819 21.1919 0.848092L21.2642 0.847636C22.7335 0.838375 23.9773 1.34845 24.9956 2.37786C26.0377 3.38303 26.5634 4.6203 26.5727 6.08967C26.582 7.55904 26.072 8.81489 25.0427 9.8572C24.0375 10.8994 22.8003 11.4251 21.3309 11.4343L21.2586 11.4348C18.6812 11.451 16.5372 11.4405 14.8267 11.4031C13.6221 11.3866 12.5621 11.3812 11.6468 11.387C11.4975 14.4472 11.4009 18.2298 11.357 22.7347L19.9194 22.5362C21.3647 22.5271 22.5963 23.0132 23.6142 23.9944C24.6321 24.9757 25.1819 26.2128 25.2636 27.7058L25.2641 27.778C25.2732 29.2233 24.7632 30.4792 23.7341 31.5456C22.7048 32.5879 21.4555 33.1137 19.9861 33.1229L11.3876 33.3217C11.4073 36.4531 11.4855 39.2951 11.622 41.8477C12.8264 41.8401 14.2354 41.8071 15.849 41.7488C17.7274 41.6647 19.6422 41.6165 21.5933 41.6042L21.6656 41.6037C23.1349 41.5945 24.3908 42.1045 25.4331 43.1337C26.4754 44.163 27.0012 45.4123 27.0105 46.8817C27.0196 48.327 26.5095 49.5708 25.4802 50.6131C24.451 51.6554 23.2017 52.1812 21.7323 52.1904L21.66 52.1909C19.9739 52.2015 18.2277 52.2487 16.4216 52.3323C14.6875 52.3914 13.0617 52.4258 11.5442 52.4353ZM3.71027 13.4243C3.8548 13.4234 3.97493 13.3745 4.07068 13.2775C4.19051 13.1804 4.24997 13.0596 4.24906 12.9151C4.27087 12.5536 4.28071 12.2043 4.27859 11.867C4.23917 9.43428 4.47956 7.44542 4.99979 5.90044C5.54394 4.33123 6.99512 3.34648 9.35332 2.94619C9.4977 2.92119 9.60572 2.86028 9.67737 2.76348C9.77297 2.64243 9.82031 2.50964 9.8194 2.36511C9.7944 2.22074 9.73349 2.11272 9.63669 2.04106C9.53973 1.94532 9.41898 1.8979 9.27445 1.89881L9.16606 1.8995C6.4229 2.37448 4.73206 3.55345 4.09352 5.43642C3.45483 7.2953 3.15627 9.60973 3.19781 12.3797C3.19888 12.5483 3.19994 12.7169 3.201 12.8856C3.20191 13.0301 3.25085 13.1502 3.34781 13.246C3.44477 13.3417 3.56559 13.4012 3.71027 13.4243ZM3.55944 18.1588C3.67988 18.158 3.78797 18.1092 3.88372 18.0122C3.97946 17.9153 4.02688 17.7945 4.02597 17.65L4.19069 15.1196C4.18993 14.9992 4.12903 14.8911 4.00798 14.7955C3.91087 14.6757 3.80209 14.6162 3.68165 14.6169L3.60939 14.6174C3.48895 14.6181 3.38085 14.667 3.28511 14.764C3.18936 14.8609 3.14195 14.9817 3.14286 15.1262C3.09848 15.7287 3.06553 16.2348 3.04403 16.6444C3.02176 16.9336 2.99965 17.2469 2.97768 17.5843C2.97875 17.7529 3.02783 17.8972 3.12494 18.017C3.2219 18.1127 3.34265 18.1602 3.48718 18.1592L3.55944 18.1588ZM15.956 24.3318L19.9301 24.2344C20.0746 24.2335 20.1948 24.1846 20.2905 24.0876C20.3862 23.9907 20.4337 23.882 20.433 23.7615L20.4325 23.6893C20.4316 23.5447 20.3827 23.4246 20.2857 23.3289C20.1888 23.2331 20.0801 23.1856 19.9596 23.1864L15.9494 23.2839C15.8049 23.2848 15.6727 23.3338 15.5529 23.431C15.4571 23.5279 15.4098 23.6607 15.4108 23.8293C15.4118 23.9738 15.4607 24.094 15.5577 24.1897C15.6787 24.2853 15.8115 24.3327 15.956 24.3318ZM25.4902 46.4576L25.6345 46.4206C25.7548 46.3958 25.8508 46.3349 25.9224 46.2381C25.9941 46.1413 26.0295 46.0327 26.0288 45.9123L26.0278 45.7677C25.6601 44.7583 25.0167 43.9433 24.0974 43.3228C23.13 42.7267 22.1646 42.4317 21.2011 42.4377C21.0566 42.4386 20.9245 42.4997 20.8048 42.6209C20.709 42.7179 20.6616 42.8386 20.6625 42.9831C20.713 43.3441 20.9068 43.5236 21.2441 43.5215L21.3525 43.5208C22.0028 43.5167 22.727 43.753 23.5249 44.2298C24.2749 44.7309 24.7605 45.3421 24.9818 46.0634C25.0067 46.1837 25.0675 46.2796 25.1643 46.3513C25.2852 46.4228 25.3938 46.4583 25.4902 46.4576Z" fill="#222222"/>
</svg>
