<svg width="35" height="56" viewBox="0 0 35 56" fill="none" xmlns="http://www.w3.org/2000/svg">
<path d="M21.7534 53.3433C19.1194 53.6319 16.6619 53.3196 14.3809 52.4064C12.1212 51.4666 10.2135 49.9794 8.6577 47.9447C7.1764 45.926 6.03346 43.5674 5.22886 40.8688C4.42165 38.1463 3.79731 34.9917 3.35584 31.4052L3.01687 28.6435C2.67577 25.5306 2.5405 22.6375 2.61106 19.9641C2.70556 17.2882 3.09773 14.7856 3.78758 12.4564C4.627 9.72301 6.14017 7.38837 8.32708 5.45245C10.5114 3.49258 13.0402 2.35521 15.9136 2.04035C17.6616 1.84881 19.2801 2.02284 20.7689 2.56245C22.2817 3.09943 23.5841 3.81698 24.6761 4.7151C25.7893 5.58665 26.6645 6.49642 27.3015 7.44439C28.2091 8.8716 28.8336 10.1481 29.1751 11.2738C29.5378 12.373 29.7192 12.9226 29.7192 12.9226L29.826 13.5652C29.9703 14.8822 29.6546 16.0921 28.8788 17.1949C28.1004 18.2737 27.0393 18.9837 25.6954 19.3248L25.1605 19.4197C23.7957 19.5693 22.5618 19.2562 21.459 18.4804C20.3776 17.6781 19.6756 16.5797 19.3532 15.1853C19.0941 14.1475 18.6788 13.4539 18.1074 13.1045C17.5574 12.7286 17.0429 12.5669 16.564 12.6194C15.9893 12.6823 15.4822 12.9197 15.0426 13.3313C14.627 13.7403 14.2468 14.4726 13.9021 15.5282C13.1263 18.4 13.111 23.2361 13.8561 30.0365C14.2051 33.2212 14.7027 35.7717 15.3489 37.688C16.019 39.6017 16.6222 40.9047 17.1585 41.5972C17.5911 42.2283 18.0174 42.6904 18.4372 42.9837C18.8545 43.253 19.3385 43.3575 19.8892 43.2971C20.392 43.242 20.8127 42.99 21.1512 42.5409C21.5137 42.0892 21.7525 41.6148 21.8676 41.1175C21.9697 40.5005 22.0118 39.8901 21.9941 39.2862C21.9764 38.6823 21.9518 38.2367 21.9203 37.9493L21.7939 37.1272C21.647 35.7862 21.9507 34.5777 22.7052 33.5015C23.4596 32.4252 24.6072 31.73 26.1479 31.4158L26.543 31.3725C27.9797 31.2151 29.2294 31.5628 30.2922 32.4156C31.3763 33.2419 32.0556 34.3549 32.3301 35.7545C32.3301 35.7545 32.3854 36.1483 32.4959 36.9359C32.5694 37.6064 32.604 38.475 32.5997 39.5417C32.6194 40.6057 32.5165 41.7681 32.2912 43.0286C32.1088 44.0179 31.7986 45.0576 31.3607 46.1476C30.9467 47.2349 30.324 48.2967 29.4924 49.3329C27.4938 51.6602 24.9141 52.997 21.7534 53.3433ZM5.03531 15.8818C5.15503 15.8687 5.25885 15.821 5.34676 15.7387C5.43467 15.6563 5.48404 15.554 5.49486 15.4317C5.91935 12.6711 6.92967 10.3915 8.52582 8.59304C10.122 6.79455 11.9618 5.6721 14.0454 5.22569C14.1625 5.18863 14.265 5.12893 14.3529 5.0466C14.4382 4.94032 14.4743 4.82732 14.4612 4.7076L14.4533 4.63576C14.4375 4.49209 14.3646 4.37892 14.2343 4.29626C14.1281 4.21098 14.0031 4.1762 13.8594 4.19195L13.8235 4.19588C11.4792 4.6951 9.44495 5.92366 7.72087 7.88156C5.9968 9.83947 4.91038 12.3091 4.46162 15.2904L4.44144 15.438C4.46768 15.6775 4.61774 15.8307 4.89164 15.8976L5.03531 15.8818ZM4.54519 20.6973C4.66492 20.6842 4.76874 20.6364 4.85665 20.5541C4.96588 20.4452 5.01393 20.3309 5.00081 20.2112C5.03362 19.626 5.07578 19.0156 5.12729 18.3799C5.12762 18.1617 5.13992 17.9423 5.1642 17.7215L5.15239 17.6138C5.13665 17.4701 5.07564 17.3556 4.96936 17.2703C4.86046 17.1611 4.73417 17.1144 4.5905 17.1301C4.47078 17.1432 4.36827 17.2029 4.28299 17.3092C4.19508 17.3915 4.14571 17.4939 4.13488 17.6162C4.03516 18.4753 3.97135 19.3304 3.94345 20.1816L3.95133 20.2535C3.96445 20.3732 4.01217 20.477 4.0945 20.5649C4.20078 20.6502 4.32706 20.697 4.47336 20.7052L4.54519 20.6973ZM23.1637 36.3591C23.2834 36.346 23.3872 36.2983 23.4752 36.216C23.5631 36.1336 23.6124 36.0313 23.6233 35.9089C23.7095 35.1483 24.0443 34.5542 24.6275 34.1268C24.8273 33.9596 24.9166 33.7801 24.8957 33.5886C24.8825 33.4688 24.8228 33.3663 24.7166 33.281C24.6316 33.1692 24.5053 33.1225 24.3377 33.1408C24.2898 33.1461 24.2419 33.1513 24.194 33.1566C24.1701 33.1592 24.1355 33.1751 24.0902 33.2043C23.6162 33.5228 23.2592 33.9133 23.0191 34.3758C22.8029 34.8357 22.6599 35.2996 22.59 35.7677L22.5698 35.9153C22.5961 36.1548 22.7461 36.308 23.02 36.3749L23.1637 36.3591Z" fill="#222222"/>
</svg>
