<svg width="35" height="54" viewBox="0 0 35 54" fill="none" xmlns="http://www.w3.org/2000/svg">
<path d="M18.6676 52.6929L18.0902 52.7216C15.0709 52.6304 12.4326 51.7123 10.1753 49.9673C7.94085 48.197 6.26709 46.0613 5.15401 43.56C4.23086 41.4835 3.55435 39.2741 3.12448 36.9319C2.69342 34.5656 2.41456 32.1073 2.2879 29.5571L2.20032 27.0652C2.10026 24.0795 2.16257 21.2063 2.38723 18.4457C2.63596 15.6838 3.20521 13.0629 4.095 10.5827C5.00407 8.00516 6.56981 5.78087 8.79224 3.90986C10.9532 2.25897 13.4526 1.35099 16.2904 1.18593C16.5791 1.17159 16.8684 1.16928 17.1583 1.179C20.2486 1.24259 22.9476 2.16974 25.2554 3.96046C27.5861 5.72592 29.2966 7.87191 30.3868 10.3984C31.2366 12.4545 31.8385 14.6194 32.1926 16.893C32.5696 19.1414 32.8178 21.4685 32.9373 23.8744L33.0482 26.8355C33.1254 29.8464 33.0041 32.7466 32.6844 35.5361C32.3888 38.3244 31.7714 40.9477 30.8323 43.4062C30.1882 45.0059 29.2729 46.4864 28.0863 47.8477C26.9239 49.2078 25.5329 50.3381 23.9135 51.2385C22.3169 52.1137 20.5683 52.5985 18.6676 52.6929ZM5.21612 14.2171C5.36047 14.21 5.47897 14.1679 5.57162 14.0909C5.66308 13.9899 5.71785 13.8787 5.73593 13.7572C6.16143 11.1554 7.08962 8.96278 8.52049 7.17932C9.97542 5.39467 11.732 4.34269 13.7904 4.0234C13.9335 3.99217 14.0508 3.92605 14.1423 3.82503C14.2337 3.72402 14.2759 3.60133 14.2687 3.45698C14.2615 3.31263 14.1954 3.19532 14.0703 3.10506C13.9693 3.0136 13.8466 2.97146 13.7023 2.97863L13.6662 2.98042C11.2975 3.36337 9.31771 4.53496 7.72679 6.49519C6.15993 8.45423 5.1559 10.8195 4.71471 13.5908L4.72008 13.6991C4.72606 13.8194 4.76752 13.9259 4.84448 14.0185C4.92144 14.1112 5.02126 14.1786 5.14394 14.2207L5.21612 14.2171ZM18.1064 42.1209C18.6838 42.0922 19.2156 41.8728 19.7017 41.4628C20.1878 41.0527 20.6132 40.3925 20.978 39.482C22.0472 36.7277 22.5411 32.591 22.46 27.0719L22.3957 25.0492C22.171 20.5261 21.575 17.0224 20.6074 14.538C20.1122 13.3085 19.5898 12.5023 19.0402 12.1196C18.4894 11.7129 17.8531 11.5274 17.1314 11.5632C16.3855 11.6003 15.7708 11.8479 15.287 12.306C14.8021 12.7401 14.3773 13.4124 14.0125 14.3229C13.0841 16.9979 12.6755 21.1545 12.7867 26.7926L12.8331 28.4545C13.0601 33.0257 13.7211 36.6226 14.8161 39.2454C15.3847 40.4954 15.9191 41.3009 16.4194 41.662C16.9426 41.9978 17.5049 42.1507 18.1064 42.1209ZM4.54871 18.9895C4.669 18.9835 4.77488 18.93 4.86633 18.829C4.95779 18.728 5.01256 18.6168 5.03064 18.4953C5.11151 17.6954 5.21523 16.8702 5.34182 16.0198L5.33465 15.8754C5.32868 15.7551 5.27519 15.6492 5.17417 15.5578C5.07196 15.4423 4.93665 15.3887 4.76824 15.3971C4.64794 15.403 4.54207 15.4565 4.45061 15.5575C4.38202 15.6333 4.32665 15.7325 4.28451 15.8552C4.15792 16.7056 4.05539 17.5549 3.97691 18.4029L3.9805 18.4751C3.98647 18.5954 4.02854 18.7139 4.10669 18.8306C4.2077 18.922 4.33098 18.9762 4.47653 18.9931L4.54871 18.9895ZM21.7981 42.1546C21.9425 42.1474 22.0718 42.0807 22.1862 41.9544C22.9985 40.8287 23.5824 39.4732 23.9378 37.8879C24.292 36.2785 24.4754 34.6294 24.4879 32.9405L24.4844 32.8683C24.4772 32.7239 24.4231 32.606 24.3221 32.5146C24.2211 32.4231 24.1104 32.3804 23.9901 32.3863L23.9179 32.3899C23.7736 32.3971 23.6557 32.4512 23.5642 32.5522C23.4728 32.6532 23.4306 32.7759 23.4378 32.9203C23.4228 34.561 23.2358 36.138 22.8769 37.6512C22.5408 39.1391 22.0345 40.3581 21.3582 41.3082C21.2667 41.4092 21.2246 41.5319 21.2317 41.6762C21.2389 41.8206 21.3056 41.9499 21.4319 42.0642C21.5558 42.1304 21.6778 42.1605 21.7981 42.1546Z" fill="#222222"/>
</svg>
