<svg width="360" height="362" viewBox="0 0 360 362" fill="none" xmlns="http://www.w3.org/2000/svg">
<g clip-path="url(#clip0_106_342)">
<path d="M360 0H-2V362H360V0Z" fill="white"/>
<g opacity="0.41">
<path d="M343.963 218.431C344.275 213.095 344.137 207.73 343.536 202.423C340.923 179.371 325.769 152.069 309.081 137.365C302.362 131.442 294.717 126.143 290.344 118.323C282.981 105.161 283.538 90.0367 274.401 77.0409C265.25 64.0306 251.921 53.8874 236.884 48.6746C192.046 33.1375 129.283 58.4341 134.93 112.452C134.952 112.647 134.974 112.93 134.995 113.284C135.748 124.506 126.937 133.94 115.73 134.208C74.3603 135.193 38.754 167.085 31.1375 207.484C26.236 233.468 34.2579 261.943 53.2629 280.318C67.4461 294.038 86.48 301.575 105.528 306.752C143.712 317.134 183.894 319.313 223.265 315.338C260.117 311.624 298.988 301.025 322.823 272.673C335.536 257.549 342.819 238.153 343.963 218.416V218.431Z" fill="#E1E2FE"/>
</g>
<g opacity="0.31">
<path d="M324.425 85.401C326.253 77.7266 321.514 70.0232 313.839 68.1949C306.165 66.3666 298.462 71.1058 296.633 78.7801C294.805 86.4545 299.544 94.1579 307.219 95.9862C314.893 97.8145 322.596 93.0753 324.425 85.401Z" fill="#E1E2FE"/>
</g>
<g opacity="0.31">
<path d="M285.406 67.8027C288.149 67.8027 290.373 65.579 290.373 62.836C290.373 60.093 288.149 57.8694 285.406 57.8694C282.663 57.8694 280.44 60.093 280.44 62.836C280.44 65.579 282.663 67.8027 285.406 67.8027Z" fill="#E1E2FE"/>
</g>
<g opacity="0.31">
<path d="M114.228 61.1534C116.668 58.406 116.419 54.2005 113.672 51.7603C110.924 49.3202 106.719 49.5693 104.279 52.3168C101.838 55.0642 102.088 59.2697 104.835 61.7098C107.582 64.15 111.788 63.9009 114.228 61.1534Z" fill="#E1E2FE"/>
</g>
<g opacity="0.31">
<path d="M49.9832 327.045C58.3521 327.045 65.1365 320.261 65.1365 311.892C65.1365 303.523 58.3521 296.739 49.9832 296.739C41.6142 296.739 34.8299 303.523 34.8299 311.892C34.8299 320.261 41.6142 327.045 49.9832 327.045Z" fill="#E1E2FE"/>
</g>
<path opacity="0.47" d="M68.7131 45.3803C61.1256 41.2607 51.6412 44.0771 47.5216 51.6646C43.4021 59.2521 43.3586 74.0072 50.9461 78.1268C58.5337 82.2464 65.3899 70.5827 72.6589 65.9274C82.7949 59.4404 76.3006 49.4998 68.7131 45.3875V45.3803Z" fill="#E1E2FE"/>
<path opacity="0.47" d="M340.148 252.509C344.68 245.306 345.817 236.364 344.868 227.901C343.927 219.495 341.357 210.669 337.759 203.024C334.349 195.777 329.411 189.311 328.006 181.239C326.146 170.574 331.018 160.322 332.148 149.861C334.399 129.038 320.325 110.685 302.862 100.773C288.679 92.7225 272.056 89.7035 255.751 89.9207C241.076 90.1161 226.429 92.7153 212.21 96.2195C198.505 99.5933 185.111 104.039 170.746 102.634C158.8 101.468 148.042 96.5091 136.914 92.8094C110.35 83.9766 78.183 82.7313 53.8928 96.176C38.3051 104.806 27.3944 118.823 22.5581 133.889C19.0105 144.923 17.9607 157.615 20.5598 168.786C23.4776 181.34 33.4326 193.735 27.4451 205.616C22.3192 215.795 17.8593 227.51 20.6105 238.152C25.6785 257.751 38.5078 258.374 44.0102 266.026C43.583 265.592 44.365 266.519 44.0102 266.026H324.654C330.758 262.739 336.456 258.374 340.141 252.509H340.148Z" fill="#E1E2FE"/>
<path opacity="0.81" d="M302.724 245.284C303.76 237.247 301.342 229.783 301.653 221.971C302.261 206.948 316.06 196.58 320.875 183.071C326.964 165.97 326.674 146.813 319.275 130.146C315.713 122.117 310.507 114.653 303.398 109.49C292.436 101.534 278.079 99.7888 264.57 100.795C244.471 102.294 223.258 110.656 203.051 108.375C191.902 107.116 188.492 95.5172 182.736 87.8718C176.22 79.22 167.351 72.4216 157.541 67.9039C139.477 59.5706 117.793 58.7814 99.331 66.34C79.6165 74.4054 62.436 94.1054 63.5654 116.376C64.0867 126.678 68.38 136.916 66.3963 147.044C63.8985 159.75 53.9362 171.334 46.7107 181.688C38.7322 193.12 33.9032 206.76 32.962 220.668C31.8904 236.444 35.8145 252.517 44.0247 266.026H295.788C299.445 259.663 301.783 252.56 302.717 245.284H302.724Z" fill="#E1E2FE"/>
<path opacity="0.58" d="M336.405 56.233C338.204 56.233 339.663 54.7744 339.663 52.975C339.663 51.1757 338.204 49.717 336.405 49.717C334.606 49.717 333.147 51.1757 333.147 52.975C333.147 54.7744 334.606 56.233 336.405 56.233Z" fill="#3E479B"/>
<path opacity="0.58" d="M34.8299 85.8881C36.6292 85.8881 38.0879 84.4294 38.0879 82.6301C38.0879 80.8307 36.6292 79.3721 34.8299 79.3721C33.0305 79.3721 31.5719 80.8307 31.5719 82.6301C31.5719 84.4294 33.0305 85.8881 34.8299 85.8881Z" fill="#3E479B"/>
<path opacity="0.58" d="M324.85 314.426C326.249 314.426 327.384 313.291 327.384 311.892C327.384 310.492 326.249 309.358 324.85 309.358C323.45 309.358 322.316 310.492 322.316 311.892C322.316 313.291 323.45 314.426 324.85 314.426Z" fill="#EF929C"/>
<path opacity="0.58" d="M44.4663 38.5748C46.2657 38.5748 47.7243 37.1162 47.7243 35.3168C47.7243 33.5175 46.2657 32.0588 44.4663 32.0588C42.667 32.0588 41.2083 33.5175 41.2083 35.3168C41.2083 37.1162 42.667 38.5748 44.4663 38.5748Z" fill="#EF929C"/>
<path opacity="0.58" d="M80.6012 316.96C81.5008 316.96 82.2302 316.231 82.2302 315.331C82.2302 314.431 81.5008 313.702 80.6012 313.702C79.7015 313.702 78.9722 314.431 78.9722 315.331C78.9722 316.231 79.7015 316.96 80.6012 316.96Z" fill="#EF929C"/>
<path opacity="0.58" d="M336.405 78.5756C337.305 78.5756 338.034 77.8463 338.034 76.9466C338.034 76.047 337.305 75.3176 336.405 75.3176C335.505 75.3176 334.776 76.047 334.776 76.9466C334.776 77.8463 335.505 78.5756 336.405 78.5756Z" fill="#EF929C"/>
<path opacity="0.58" d="M26.6704 291.482C28.0699 291.482 29.2044 290.348 29.2044 288.948C29.2044 287.549 28.0699 286.414 26.6704 286.414C25.2709 286.414 24.1364 287.549 24.1364 288.948C24.1364 290.348 25.2709 291.482 26.6704 291.482Z" fill="#3E479B"/>
<path opacity="0.58" d="M75.6418 33.1447C76.2415 33.1447 76.7278 32.6584 76.7278 32.0587C76.7278 31.4589 76.2415 30.9727 75.6418 30.9727C75.042 30.9727 74.5558 31.4589 74.5558 32.0587C74.5558 32.6584 75.042 33.1447 75.6418 33.1447Z" fill="#3E479B"/>
<path opacity="0.58" d="M297.345 319.074C297.945 319.074 298.431 318.588 298.431 317.988C298.431 317.388 297.945 316.902 297.345 316.902C296.745 316.902 296.259 317.388 296.259 317.988C296.259 318.588 296.745 319.074 297.345 319.074Z" fill="#3E479B"/>
<path opacity="0.58" d="M274.257 37.6624C273.808 39.7765 271.73 41.1232 269.616 40.6743C267.502 40.2254 266.155 38.1475 266.604 36.0334C267.053 33.9194 269.131 32.5727 271.245 33.0216C273.359 33.4705 274.706 35.5484 274.257 37.6624Z" fill="#EF929C"/>
<path opacity="0.58" d="M206.049 57.9417C205.897 58.644 205.209 59.0929 204.499 58.9481C203.797 58.7961 203.348 58.1083 203.493 57.3987C203.645 56.6965 204.333 56.2476 205.042 56.3924C205.745 56.5444 206.193 57.2322 206.049 57.9417Z" fill="#3E479B"/>
<g opacity="0.66">
<path d="M256.316 227.268C299.015 184.569 299.015 115.34 256.316 72.6404C213.617 29.941 144.387 29.941 101.688 72.6404C58.9886 115.34 58.9886 184.569 101.688 227.268C144.387 269.968 213.617 269.968 256.316 227.268Z" fill="#F7A9B4"/>
<path opacity="0.5" d="M179 259.293C228.614 259.293 268.834 219.073 268.834 169.459C268.834 119.846 228.614 79.6255 179 79.6255C129.386 79.6255 89.1661 119.846 89.1661 169.459C89.1661 219.073 129.386 259.293 179 259.293Z" fill="#F28393"/>
<path d="M226.916 239.441C253.381 212.976 253.381 170.069 226.916 143.605C200.452 117.14 157.545 117.14 131.08 143.605C104.616 170.069 104.616 212.976 131.08 239.441C157.545 265.905 200.452 265.905 226.916 239.441Z" fill="#F28393"/>
</g>
<path d="M53.6177 273.657C53.6177 273.657 88.3697 298.266 118.524 252.126C118.524 252.126 75.801 234.127 53.6177 273.657Z" fill="#C5D9FF"/>
<path d="M71.2254 277.683C70.8127 277.473 70.6534 276.959 70.8634 276.546L74.4399 269.487L63.522 273.563C63.0876 273.723 62.6098 273.498 62.4505 273.064C62.2912 272.622 62.5084 272.144 62.9428 271.978L74.4761 267.677L67.0913 264.73C66.6642 264.557 66.447 264.072 66.6207 263.637C66.7872 263.203 67.2723 262.993 67.7067 263.159L76.8291 266.801L89.7236 261.987L82.2808 259.018C81.8537 258.844 81.6365 258.359 81.8102 257.925C81.9768 257.49 82.4618 257.281 82.889 257.447L92.0621 261.11L118.235 251.344C118.669 251.184 119.147 251.409 119.306 251.843C119.364 252.01 119.371 252.184 119.335 252.343C119.27 252.604 119.082 252.828 118.814 252.929L91.9173 262.971L87.5443 271.616C87.3344 272.028 86.8348 272.195 86.4221 271.985C86.0094 271.775 85.8502 271.261 86.0601 270.848L89.6077 263.84L76.7567 268.633L72.3548 277.328C72.1448 277.741 71.6453 277.907 71.2326 277.697L71.2254 277.683Z" fill="#E1EDFF"/>
<path d="M120.993 151.33C120.993 151.33 83.1352 178.763 112.913 199.136C112.913 199.136 146.348 192.859 120.993 151.33Z" fill="#C5D9FF"/>
<path d="M115.867 184.569L117.055 177.126L124.787 169.264L117.279 175.707L120.327 156.55C120.349 156.398 120.255 156.253 120.103 156.224C119.951 156.195 119.799 156.29 119.77 156.449L115.976 175.106L111.147 166.73L115.693 176.467L114.151 184.033L109.091 175.193L108.931 175.28L113.876 185.394L111.849 195.371C111.849 195.371 111.849 195.407 111.842 195.422C111.74 196.044 112.16 196.638 112.783 196.732C113.398 196.834 113.985 196.406 114.079 195.784L115.664 185.814L124.251 178.661L115.867 184.562V184.569Z" fill="#E1EDFF"/>
<path d="M55.0222 241.28C55.0222 241.28 89.9118 272.485 102.893 238.565C102.893 238.565 89.376 206.999 55.0222 241.28Z" fill="#F7A9B4"/>
<path d="M99.4107 238.16L89.4484 238.819L80.6374 231.948L88.1959 238.898L80.7604 239.39L71.457 233.526L79.3486 239.485L60.2133 240.759C60.0613 240.766 59.9454 240.896 59.9454 241.048C59.9454 241.208 60.0758 241.331 60.235 241.331L79.059 240.904L72.0652 247.535L80.4346 240.875L88.0728 240.701L80.688 247.666L80.8111 247.803L89.4484 240.672L99.512 240.448C99.512 240.448 99.5482 240.448 99.5627 240.448C100.185 240.404 100.663 239.861 100.62 239.231C100.576 238.601 100.041 238.123 99.4179 238.16H99.4107Z" fill="#F9C7D0"/>
<path d="M21.9861 186.423C21.9861 186.423 34.8516 250.214 115.99 232.375C115.99 232.375 87.5298 167.229 21.9861 186.423Z" fill="#C5D9FF"/>
<path d="M33.476 195.19C33.6642 194.763 34.1566 194.575 34.5765 194.763L52.6548 202.908L47.2465 190.738C47.0582 190.311 47.2465 189.811 47.6664 189.623C48.0863 189.434 48.5786 189.623 48.7669 190.05L54.9354 203.943L68.0904 209.873L62.5374 197.362C62.3491 196.935 62.5374 196.436 62.9573 196.247C63.3772 196.059 63.8695 196.247 64.0578 196.674L70.3566 210.865C70.3566 210.865 70.3566 210.894 70.3638 210.908L82.9614 216.584L77.7414 204.827C77.5531 204.4 77.7414 203.9 78.1613 203.712C78.5812 203.523 79.0735 203.712 79.2618 204.139L85.2492 217.62L116.323 231.622C116.743 231.81 116.931 232.31 116.743 232.737C116.591 233.077 116.244 233.265 115.896 233.236C115.809 233.229 115.722 233.208 115.636 233.171L85.1551 219.437C85.1551 219.437 85.1406 219.444 85.1334 219.451C84.9958 219.517 84.851 219.538 84.7135 219.524C84.6049 219.517 84.5107 219.473 84.4166 219.43L71.5439 222.738C71.4498 222.76 71.3484 222.767 71.2543 222.76C70.914 222.724 70.6172 222.485 70.5303 222.13C70.4145 221.681 70.6896 221.218 71.1312 221.102L82.4039 218.206L53.4584 205.16L38.6236 205.884C38.5802 205.884 38.544 205.884 38.5006 205.884C38.0951 205.84 37.7693 205.507 37.7476 205.087C37.7259 204.624 38.0806 204.226 38.544 204.204L50.0773 203.639L33.8887 196.341C33.4688 196.153 33.2805 195.654 33.4688 195.226L33.476 195.19Z" fill="#E1EDFF"/>
<path d="M84.728 146.907C84.728 146.907 61.6324 182.897 108.265 211.77C108.265 211.77 124.548 167.953 84.728 146.907Z" fill="#F28393"/>
<path d="M81.3686 164.855C81.5641 164.435 82.0636 164.246 82.4763 164.449L89.5788 167.816L85.1696 156.92C84.9958 156.485 85.1986 155.993 85.6257 155.819C86.0529 155.645 86.538 155.848 86.7117 156.282L91.3671 167.787L94.0241 160.214C94.1762 159.772 94.654 159.54 95.0884 159.7C95.5228 159.859 95.7472 160.337 95.5952 160.779L92.3155 170.125L97.521 182.991L100.193 175.367C100.345 174.925 100.822 174.694 101.257 174.853C101.691 175.012 101.916 175.49 101.764 175.932L98.4622 185.337L109.033 211.451C109.206 211.886 109.004 212.378 108.577 212.552C108.417 212.617 108.243 212.631 108.084 212.595C107.824 212.537 107.592 212.356 107.483 212.088L96.6233 185.242L87.928 181.123C87.5081 180.927 87.3271 180.421 87.5226 180.001C87.7181 179.581 88.2176 179.393 88.6303 179.595L95.6821 182.94L90.491 170.118L81.7451 165.97C81.3252 165.774 81.1442 165.267 81.3396 164.847L81.3686 164.855Z" fill="#F7A9B4"/>
<path d="M304.969 273.657C304.969 273.657 270.861 298.266 241.257 252.126C241.257 252.126 283.191 234.127 304.969 273.657Z" fill="#C5D9FF"/>
<path d="M287.68 277.683C288.085 277.473 288.244 276.959 288.034 276.546L284.523 269.487L295.238 273.563C295.665 273.723 296.136 273.498 296.288 273.064C296.447 272.622 296.23 272.144 295.803 271.978L284.487 267.677L291.734 264.73C292.154 264.557 292.364 264.072 292.197 263.637C292.031 263.203 291.553 262.993 291.133 263.159L282.177 266.801L269.522 261.987L276.827 259.018C277.247 258.844 277.457 258.359 277.29 257.925C277.124 257.49 276.646 257.281 276.226 257.447L267.219 261.11L241.532 251.344C241.105 251.184 240.634 251.409 240.482 251.843C240.424 252.01 240.417 252.184 240.453 252.343C240.518 252.604 240.699 252.828 240.967 252.929L267.371 262.971L271.665 271.616C271.867 272.028 272.367 272.195 272.765 271.985C273.171 271.775 273.33 271.261 273.12 270.848L269.638 263.84L282.25 268.633L286.572 277.328C286.775 277.741 287.274 277.907 287.672 277.697L287.68 277.683Z" fill="#E1EDFF"/>
<path d="M238.839 151.33C238.839 151.33 275.994 178.763 246.766 199.136C246.766 199.136 213.947 192.859 238.839 151.33Z" fill="#C5D9FF"/>
<path d="M247.809 195.378L245.818 185.402L250.669 175.287L250.509 175.201L245.543 184.041L244.03 176.475L248.497 166.737L243.755 175.114L240.033 156.456C240.004 156.304 239.852 156.203 239.707 156.232C239.563 156.261 239.468 156.406 239.49 156.558L242.48 175.715L235.11 169.271L242.698 177.134L243.863 184.576L235.631 178.676L244.059 185.829L245.615 195.798C245.709 196.421 246.281 196.848 246.889 196.747C247.498 196.645 247.91 196.059 247.809 195.436C247.809 195.422 247.809 195.4 247.802 195.386L247.809 195.378Z" fill="#E1EDFF"/>
<path d="M303.586 241.28C303.586 241.28 269.341 272.485 256.598 238.565C256.598 238.565 269.862 206.999 303.586 241.28Z" fill="#F7A9B4"/>
<path d="M298.503 240.759L279.723 239.485L287.462 233.526L278.333 239.39L271.035 238.898L278.456 231.948L269.811 238.819L260.03 238.16C259.415 238.116 258.886 238.594 258.85 239.231C258.807 239.861 259.277 240.411 259.885 240.448C259.9 240.448 259.921 240.448 259.936 240.448L269.811 240.672L278.289 247.803L278.405 247.666L271.158 240.701L278.651 240.875L286.869 247.535L280.005 240.904L298.482 241.331C298.634 241.331 298.764 241.208 298.764 241.048C298.764 240.896 298.655 240.766 298.503 240.759Z" fill="#F9C7D0"/>
<path d="M336.014 186.423C336.014 186.423 323.387 250.214 243.747 232.375C243.747 232.375 271.679 167.229 336.014 186.423Z" fill="#C5D9FF"/>
<path d="M324.734 195.19C324.553 194.763 324.068 194.575 323.655 194.763L305.91 202.908L311.217 190.738C311.405 190.311 311.217 189.811 310.804 189.623C310.392 189.434 309.906 189.623 309.725 190.05L303.673 203.943L290.764 209.873L296.216 197.362C296.404 196.935 296.216 196.436 295.803 196.247C295.39 196.059 294.905 196.247 294.724 196.674L288.541 210.865C288.541 210.865 288.541 210.894 288.534 210.908L276.175 216.584L281.301 204.827C281.489 204.4 281.301 203.9 280.889 203.712C280.476 203.523 279.991 203.712 279.81 204.139L273.938 217.62L243.436 231.622C243.023 231.81 242.835 232.31 243.023 232.737C243.168 233.077 243.508 233.265 243.849 233.236C243.936 233.229 244.022 233.208 244.102 233.171L274.025 219.437C274.025 219.437 274.039 219.444 274.039 219.451C274.177 219.517 274.315 219.538 274.452 219.524C274.554 219.517 274.655 219.473 274.742 219.43L287.376 222.738C287.47 222.76 287.564 222.767 287.658 222.76C287.991 222.724 288.281 222.485 288.375 222.13C288.483 221.681 288.223 221.218 287.781 221.102L276.718 218.206L305.128 205.16L319.688 205.884C319.731 205.884 319.767 205.884 319.811 205.884C320.209 205.84 320.528 205.507 320.549 205.087C320.571 204.624 320.223 204.226 319.775 204.204L308.451 203.639L324.343 196.341C324.756 196.153 324.944 195.654 324.756 195.226L324.734 195.19Z" fill="#E1EDFF"/>
<path d="M274.43 146.907C274.43 146.907 297.099 182.897 251.328 211.77C251.328 211.77 235.342 167.953 274.43 146.907Z" fill="#F28393"/>
<path d="M277.725 164.855C277.529 164.435 277.044 164.246 276.639 164.449L269.666 167.816L273.996 156.92C274.17 156.485 273.967 155.993 273.547 155.819C273.127 155.645 272.649 155.848 272.476 156.282L267.907 167.787L265.301 160.214C265.149 159.772 264.685 159.54 264.258 159.7C263.831 159.859 263.607 160.337 263.759 160.779L266.98 170.125L261.869 182.991L259.241 175.367C259.089 174.925 258.626 174.694 258.198 174.853C257.771 175.012 257.547 175.49 257.699 175.932L260.935 185.337L250.56 211.451C250.386 211.886 250.589 212.378 251.009 212.552C251.168 212.617 251.335 212.631 251.487 212.595C251.74 212.537 251.965 212.356 252.073 212.088L262.731 185.242L271.259 181.123C271.672 180.927 271.846 180.421 271.65 180.001C271.455 179.581 270.97 179.393 270.564 179.595L263.643 182.94L268.733 170.118L277.312 165.97C277.725 165.774 277.898 165.267 277.703 164.847L277.725 164.855Z" fill="#F7A9B4"/>
<path d="M116.866 185.909L110.72 195.248C110.72 195.248 87.595 179.784 87.5733 179.762C86.8927 179.306 87.0447 177.322 86.9941 176.627C86.8855 175.107 86.4583 173.746 85.9081 172.327C84.5469 168.851 82.5197 165.586 79.8844 162.936C78.7043 161.749 76.706 161.872 75.6852 163.298C74.896 164.406 75.135 165.955 76.0979 166.918C77.2708 168.098 79.7541 170.227 79.3703 172.153C79.2617 172.696 78.8563 173.13 78.4074 173.449C76.0255 175.136 72.3258 174.542 70.1828 172.754C68.2063 171.11 67.2216 168.359 67.6922 165.832C67.7719 165.391 67.9094 164.935 68.2207 164.602C69.1113 163.653 71.0733 164.145 72.1738 164.428C73.6435 164.804 75.1422 163.921 75.5187 162.451C75.8951 160.982 75.0408 159.505 73.5421 159.106C68.2714 157.752 64.217 159.179 62.6894 162.922C62.2839 163.906 62.0885 164.978 62.074 166.216L54.9643 160.163C53.9724 159.316 52.4665 159.439 51.6194 160.431L51.3081 160.801C50.461 161.792 50.5841 163.298 51.576 164.145L54.1679 166.354C53.357 166.267 52.5244 166.578 52.0031 167.266L51.7063 167.657C50.9099 168.699 51.1126 170.213 52.1552 171.009L75.3304 188.986C75.3304 188.986 75.3956 189.008 75.4246 189C77.7631 191.795 80.0944 194.582 82.4329 197.377C86.3352 202.04 90.2376 206.709 94.1472 211.372C98.2668 216.295 102.061 220.835 107.925 223.014C112.74 225.62 118.539 225.034 122.709 221.805C122.767 221.761 122.825 221.718 122.883 221.674C123.983 220.791 124.968 219.734 125.779 218.489L138.311 199.267L116.859 185.923L116.866 185.909Z" fill="#F9D9EB"/>
<path opacity="0.32" d="M125.402 203.842L114.702 189.196L110.683 195.437L125.402 203.842Z" fill="#EF92C7"/>
<path d="M306.004 167.266C305.476 166.578 304.643 166.259 303.839 166.354L306.431 164.145C307.423 163.298 307.546 161.792 306.699 160.8L306.388 160.431C305.541 159.439 304.035 159.316 303.043 160.163L295.933 166.216C295.919 164.985 295.723 163.914 295.318 162.922C293.79 159.171 289.736 157.745 284.465 159.106C282.974 159.504 282.112 160.981 282.489 162.451C282.865 163.921 284.364 164.804 285.833 164.428C287.26 164.058 289.605 163.595 290.315 165.246C291.647 168.366 289.033 172.457 286.232 173.753C284.4 174.6 282.213 174.636 280.36 173.84C279.65 173.536 278.948 173.065 278.709 172.334C278.058 170.328 280.707 168.127 281.917 166.918C282.879 165.955 283.118 164.406 282.329 163.298C281.308 161.872 279.31 161.749 278.13 162.936C274.192 166.897 271.238 172.587 270.55 178.213C270.528 178.379 270.55 179.69 270.434 179.769L246.918 195.502L240.453 186.358L219.877 199.158V199.549L232.221 218.489C233.032 219.734 234.017 220.791 235.117 221.674C235.175 221.718 235.233 221.761 235.291 221.805C239.461 225.034 245.26 225.62 250.075 223.014C255.947 220.842 259.733 216.295 263.853 211.372C267.755 206.709 271.658 202.039 275.567 197.377C277.906 194.582 280.237 191.795 282.575 189C282.612 189.007 282.641 189.007 282.67 188.986L305.845 171.009C306.887 170.212 307.097 168.707 306.294 167.657L305.997 167.266H306.004Z" fill="#F9D9EB"/>
<path opacity="0.32" d="M232.279 203.842L242.719 189.558L247.005 195.437L232.279 203.842Z" fill="#EF92C7"/>
<path d="M240.446 186.35L243.154 184.663L215.844 148.818C212.123 143.881 206.215 140.688 199.554 140.688H155.941C149.931 140.688 144.661 143.837 141.685 148.579C140.331 150.737 138.825 152.8 137.29 154.842C137.001 155.226 136.718 155.609 136.429 155.986L114.839 184.642L116.859 185.902L138.311 199.245L138.499 199.361L138.058 228.61H219.812L219.863 199.534V199.143L240.439 186.343L240.446 186.35Z" fill="#6D6CD4"/>
<path d="M235.537 268.517H122.528C107.302 268.517 94.9581 256.173 94.9581 240.947V239.738C94.9581 232.983 100.432 227.51 107.186 227.51H249.069C256.656 227.51 262.803 233.657 262.803 241.244C262.803 256.303 250.596 268.51 235.537 268.51V268.517Z" fill="#3E479B"/>
<path d="M264.997 239.984C264.193 232.549 257.807 227.409 251.089 225.128C244.073 222.746 236.196 223.738 229.999 227.792L148.02 283.678C146.297 285.611 146.384 288.558 148.23 290.382L171.036 312.891C172.303 314.144 174.113 314.68 175.858 314.318L179.847 313.492C180.506 313.355 180.882 312.652 180.629 312.03L172.245 291.258C196.883 282.237 221.448 273.028 246.289 264.528C250.039 263.247 254.093 262.19 257.156 259.503C260.081 257.216 262.05 253.892 263.375 250.425C264.642 247.101 265.38 243.518 264.997 239.984Z" fill="#F9D9EB"/>
<path d="M208.467 283.678L127.111 227.792C120.913 223.738 113.036 222.746 106.021 225.128C99.3021 227.409 92.9236 232.549 92.1128 239.984C91.729 243.518 92.4675 247.101 93.7345 250.425C95.0594 253.892 97.0215 257.223 99.9537 259.503C103.023 262.19 107.078 263.239 110.821 264.528C135.48 272.97 159.872 282.107 184.329 291.063L175.865 312.03C175.612 312.652 175.988 313.355 176.647 313.492L180.636 314.318C182.381 314.68 184.191 314.144 185.458 312.891L208.264 290.382C210.11 288.565 210.204 285.611 208.474 283.678H208.467Z" fill="#F9D9EB"/>
<path opacity="0.32" d="M178.385 263.008L153.725 279.841L146.159 277.075L178.385 263.008Z" fill="#EF92C7"/>
<path opacity="0.32" d="M178.558 288.949L203.044 279.949L206.555 282.36L178.558 288.949Z" fill="#EF92C7"/>
<path d="M195.782 66.4271C196.354 64.6895 196.666 62.8361 196.666 60.9102C196.666 51.1507 188.76 43.2446 179 43.2446C169.24 43.2446 161.334 51.1507 161.334 60.9102C161.334 62.8361 161.646 64.6895 162.218 66.4271C154.485 71.0535 149.309 79.5026 149.309 89.1679V92.9183C149.309 107.543 161.168 119.402 175.793 119.402H182.2C196.825 119.402 208.684 107.543 208.684 92.9183V89.1679C208.684 79.5026 203.507 71.0535 195.775 66.4271H195.782Z" fill="#3E479B"/>
<path d="M200.17 100.491H199.967L199.822 93.5336C199.808 92.8241 199.743 92.1291 199.656 91.4485H194.914C185.755 91.4485 178.327 91.5426 178.327 82.384C178.327 88.8928 173.056 94.1635 166.547 94.1635H157.722C157.722 94.2504 157.722 94.33 157.722 94.4097L157.845 100.499H157.83C153.645 100.499 150.228 103.923 150.228 108.101V109.179C150.228 113.364 153.653 116.781 157.83 116.781H158.192C158.431 123.529 162.051 129.379 167.38 132.731V145.068C167.38 151.034 172.26 155.921 178.233 155.921H179.767C185.733 155.921 190.62 151.041 190.62 145.068V132.955C196.217 129.647 200.01 123.652 200.271 116.774C204.412 116.723 207.779 113.328 207.779 109.172V108.093C207.779 103.909 204.354 100.491 200.177 100.491H200.17Z" fill="#F9D9EB"/>
<path opacity="0.32" d="M200.083 113.907C200.307 124.666 191.764 133.564 181.013 133.788L178.254 133.846C167.496 134.07 158.598 125.527 158.373 114.776L158.178 116.492C158.33 123.79 162.442 130.067 168.415 133.339C170.182 137.126 174.07 139.732 178.5 139.631L180.035 139.595C184.177 139.5 187.739 137.061 189.483 133.578C196.021 130.269 200.438 123.428 200.278 115.616L200.083 113.914V113.907Z" fill="#EF92C7"/>
<path d="M154.572 111.851C154.471 111.851 154.37 111.807 154.297 111.72C154.167 111.568 154.189 111.337 154.341 111.214L156.397 109.476L154.102 106.073C153.993 105.907 154.036 105.682 154.203 105.574C154.37 105.465 154.594 105.509 154.703 105.675L157.179 109.346C157.28 109.498 157.251 109.708 157.113 109.824L154.811 111.771C154.746 111.829 154.659 111.858 154.579 111.858L154.572 111.851Z" fill="#F7A9B4"/>
<path d="M203.775 111.851C203.696 111.851 203.609 111.822 203.544 111.764L201.241 109.816C201.096 109.7 201.067 109.49 201.176 109.338L203.652 105.668C203.768 105.501 203.992 105.458 204.152 105.566C204.318 105.675 204.362 105.899 204.253 106.066L201.958 109.469L204.014 111.206C204.166 111.337 204.188 111.561 204.058 111.713C203.985 111.8 203.884 111.843 203.782 111.843L203.775 111.851Z" fill="#F7A9B4"/>
<path d="M178.233 125.541C178.124 125.541 178.023 125.498 177.95 125.404C177.827 125.245 177.849 125.02 178.008 124.897C178.674 124.361 180.368 123.623 181.976 124.651C182.142 124.76 182.193 124.984 182.084 125.151C181.976 125.317 181.751 125.368 181.585 125.259C180.014 124.253 178.522 125.411 178.457 125.462C178.392 125.513 178.312 125.541 178.233 125.541Z" fill="#F7A9B4"/>
<path d="M176.647 117.107C175.532 117.107 174.251 116.933 173.425 116.253C172.846 115.775 172.549 115.123 172.549 114.312C172.549 114.066 172.745 113.871 172.991 113.871C173.237 113.871 173.432 114.066 173.432 114.312C173.432 114.855 173.613 115.268 173.983 115.572C175.119 116.499 177.755 116.224 178.674 116.036C178.913 115.985 179.145 116.144 179.195 116.383C179.246 116.622 179.087 116.854 178.848 116.904C178.768 116.919 177.798 117.107 176.647 117.107Z" fill="#F7A9B4"/>
<path d="M185.27 96.7337C185.661 97.0378 186.247 97.1319 186.805 97.255C187.369 97.3636 187.934 97.4939 188.426 97.617C188.919 97.74 189.469 97.9066 190.019 98.0876C190.569 98.2541 191.127 98.4568 191.612 98.3772C192.075 98.3048 192.379 97.8414 192.046 97.0884C191.735 96.3572 190.685 95.387 189.071 94.9599C187.456 94.5472 186.081 94.902 185.48 95.3943C184.843 95.8938 184.893 96.4513 185.277 96.7409L185.27 96.7337Z" fill="#3E479B"/>
<path d="M188.05 106.891C187.355 106.891 186.537 106.739 185.639 106.298C185.407 106.182 185.321 105.907 185.429 105.675C185.545 105.443 185.82 105.356 186.052 105.465C188.238 106.558 189.86 105.508 189.874 105.494C190.084 105.349 190.374 105.407 190.512 105.624C190.656 105.834 190.598 106.124 190.381 106.261C190.323 106.298 189.418 106.884 188.043 106.884L188.05 106.891Z" fill="#3E479B"/>
<path d="M180.18 110.917H176.357C176.155 110.917 175.995 110.758 175.995 110.555C175.995 110.352 176.155 110.193 176.357 110.193H180.18C180.477 110.193 180.759 110.063 180.948 109.831C181.136 109.599 181.208 109.302 181.15 109.013L179.384 100.18C179.348 99.9844 179.471 99.7962 179.666 99.7528C179.862 99.7093 180.05 99.8396 180.093 100.035L181.86 108.875C181.961 109.382 181.831 109.896 181.505 110.294C181.179 110.692 180.694 110.924 180.18 110.924V110.917Z" fill="#F7A9B4"/>
<path d="M167.097 99.941C167.59 99.9989 168.14 99.7672 168.676 99.579C169.219 99.3762 169.762 99.188 170.247 99.0432C170.732 98.8984 171.289 98.7464 171.854 98.6088C172.412 98.464 172.991 98.3409 173.36 98.0224C173.722 97.7183 173.737 97.168 173.056 96.6974C172.412 96.2341 171.007 95.9517 169.407 96.4368C167.814 96.9291 166.83 97.9427 166.569 98.6812C166.287 99.4414 166.62 99.8903 167.097 99.9337V99.941Z" fill="#3E479B"/>
<path d="M170.001 106.891C169.306 106.891 168.487 106.739 167.59 106.298C167.358 106.182 167.271 105.907 167.38 105.675C167.496 105.443 167.771 105.356 168.002 105.465C170.189 106.558 171.811 105.508 171.825 105.494C172.035 105.349 172.325 105.407 172.462 105.624C172.607 105.834 172.549 106.124 172.332 106.261C172.274 106.298 171.369 106.884 169.993 106.884L170.001 106.891Z" fill="#3E479B"/>
<path d="M152.538 122.914H151.792C151.589 122.914 151.43 122.754 151.43 122.552C151.43 122.349 151.589 122.19 151.792 122.19H152.538C155.311 122.19 157.57 119.931 157.57 117.158V92.9472C157.57 92.7445 157.729 92.5852 157.932 92.5852C158.134 92.5852 158.294 92.7445 158.294 92.9472V117.158C158.294 120.329 155.709 122.914 152.538 122.914Z" fill="#3E479B"/>
<path d="M156.549 110.917H156.107C155.904 110.917 155.745 110.758 155.745 110.555C155.745 110.352 155.904 110.193 156.107 110.193H156.549C158.12 110.193 159.394 108.919 159.394 107.348V92.9472C159.394 92.7445 159.553 92.5852 159.756 92.5852C159.959 92.5852 160.118 92.7445 160.118 92.9472V107.348C160.118 109.317 158.518 110.917 156.549 110.917Z" fill="#3E479B"/>
<path d="M205.889 121.038H205.144C201.972 121.038 199.388 118.454 199.388 115.283V91.072C199.388 90.8692 199.547 90.71 199.75 90.71C199.953 90.71 200.112 90.8692 200.112 91.072V115.283C200.112 118.055 202.371 120.314 205.144 120.314H205.889C206.092 120.314 206.251 120.474 206.251 120.676C206.251 120.879 206.092 121.038 205.889 121.038Z" fill="#3E479B"/>
<path d="M201.574 109.042H201.133C199.163 109.042 197.563 107.442 197.563 105.472V91.072C197.563 90.8692 197.723 90.71 197.925 90.71C198.128 90.71 198.287 90.8692 198.287 91.072V105.472C198.287 107.043 199.562 108.318 201.133 108.318H201.574C201.777 108.318 201.936 108.477 201.936 108.68C201.936 108.882 201.777 109.042 201.574 109.042Z" fill="#3E479B"/>
</g>
<defs>
<clipPath id="clip0_106_342">
<rect width="362" height="362" fill="white" transform="translate(-2)"/>
</clipPath>
</defs>
</svg>
