<svg width="71" height="71" viewBox="0 0 71 71" fill="none" xmlns="http://www.w3.org/2000/svg">
<g clip-path="url(#clip0_175_239)">
<path d="M70.5482 41.19C73.6898 21.836 60.5471 3.59981 41.1931 0.458224C21.8392 -2.68336 3.60295 10.4593 0.461357 29.8133C-2.68023 49.1672 10.4625 67.4034 29.8164 70.545C49.1704 73.6866 67.4066 60.5439 70.5482 41.19Z" fill="#F16D24"/>
<path d="M54.0736 5.20204C57.6097 10.7206 59.6588 17.2846 59.6588 24.3234C59.6588 43.9278 43.7654 59.8254 24.1567 59.8254C17.347 59.8254 10.9872 57.9054 5.58521 54.5818C11.8951 64.4319 22.9364 70.9584 35.5021 70.9584C55.1065 70.9584 71.0042 55.0649 71.0042 35.4563C71.0042 22.6574 64.2319 11.4453 54.0778 5.19788L54.0736 5.20204Z" fill="#EF6421"/>
<path d="M4.82303 39.2464C4.82303 21.0414 19.5836 6.28491 37.7845 6.28491C48.426 6.28491 57.8846 11.3287 63.9113 19.1546C58.2219 9.27119 47.5513 2.61975 35.3313 2.61975C17.1305 2.61975 2.36987 17.3762 2.36987 35.5812C2.36987 43.1448 4.91883 50.1127 9.20457 55.673C6.41821 50.8374 4.82303 45.2272 4.82303 39.2464Z" fill="#F2824E"/>
<path d="M22.42 33.3031C23.8645 33.3031 25.0356 31.3283 25.0356 28.8924C25.0356 26.4564 23.8645 24.4817 22.42 24.4817C20.9754 24.4817 19.8044 26.4564 19.8044 28.8924C19.8044 31.3283 20.9754 33.3031 22.42 33.3031Z" fill="#303030"/>
<path d="M51.1957 28.8924C51.1957 31.3289 50.0253 33.3031 48.5801 33.3031C47.1348 33.3031 45.9645 31.3289 45.9645 28.8924C45.9645 26.4559 47.1348 24.4817 48.5801 24.4817C50.0253 24.4817 51.1957 26.4559 51.1957 28.8924Z" fill="#303030"/>
<path d="M50.0503 51.2789C50.9666 52.1661 52.4285 51.1831 51.9578 50.0003C49.3339 43.4447 42.9282 38.8174 35.4354 38.8174C27.9427 38.8174 21.7494 43.2947 19.0505 49.6754C18.559 50.8374 20.0334 51.8454 20.9414 50.9666C26.1351 45.9311 37.1681 38.7632 50.0503 51.2789Z" fill="#5E4939"/>
<path d="M21.8519 14.8173L19.4723 17.1969L27.4151 25.1397L29.7948 22.7601L21.8519 14.8173Z" fill="#303030"/>
<path d="M51.528 17.1971L49.1484 14.8175L41.2055 22.7604L43.5851 25.14L51.528 17.1971Z" fill="#303030"/>
</g>
<defs>
<clipPath id="clip0_175_239">
<rect width="71" height="71" fill="white"/>
</clipPath>
</defs>
</svg>
