<svg width="71" height="71" viewBox="0 0 71 71" fill="none" xmlns="http://www.w3.org/2000/svg">
<g clip-path="url(#clip0_189_13)">
<path d="M60.6048 60.606C74.4692 46.7415 74.4692 24.2629 60.6048 10.3984C46.7404 -3.46599 24.2617 -3.46599 10.3973 10.3984C-3.46714 24.2629 -3.46714 46.7415 10.3973 60.606C24.2617 74.4704 46.7404 74.4704 60.6048 60.606Z" fill="#FFD05D"/>
<path d="M54.0736 5.20216C57.6097 10.7207 59.6588 17.2847 59.6588 24.3235C59.6588 43.9279 43.7654 59.8256 24.1567 59.8256C17.347 59.8256 10.9872 57.9055 5.58521 54.5819C11.8951 64.432 22.9364 70.9585 35.5021 70.9585C55.1065 70.9585 71.0042 55.065 71.0042 35.4564C71.0042 22.6575 64.2319 11.4454 54.0778 5.198L54.0736 5.20216Z" fill="#FDC453"/>
<path d="M4.82297 39.2465C4.82297 21.0415 19.5836 6.28503 37.7844 6.28503C48.4259 6.28503 57.8845 11.3288 63.9112 19.1547C58.2219 9.27131 47.5513 2.61987 35.3313 2.61987C17.1304 2.61987 2.36981 17.3763 2.36981 35.5813C2.36981 43.1449 4.91876 50.1129 9.2045 55.6731C6.41815 50.8376 4.82297 45.2274 4.82297 39.2465Z" fill="#FFD77F"/>
<path d="M14.7964 22.5625L12.4992 24.8596L22.8482 35.2086L25.1453 32.9114L14.7964 22.5625Z" fill="#303030"/>
<path d="M25.143 24.8589L22.8458 22.5618L12.4969 32.9107L14.794 35.2079L25.143 24.8589Z" fill="#303030"/>
<path d="M48.1544 22.5617L45.8572 24.8589L56.2062 35.2079L58.5034 32.9107L48.1544 22.5617Z" fill="#303030"/>
<path d="M58.501 24.8557L56.2039 22.5586L45.8549 32.9076L48.152 35.2047L58.501 24.8557Z" fill="#303030"/>
<path d="M35.502 57.6014C39.0421 57.6014 41.9119 52.7363 41.9119 46.735C41.9119 40.7337 39.0421 35.8687 35.502 35.8687C31.962 35.8687 29.0922 40.7337 29.0922 46.735C29.0922 52.7363 31.962 57.6014 35.502 57.6014Z" fill="#695342"/>
<path d="M40.9123 52.5577C36.2351 49.9879 32.4283 51.4457 30.225 52.9034C31.3829 55.7397 33.3113 57.6015 35.502 57.6015C37.6928 57.6015 39.7753 55.5898 40.9123 52.5577Z" fill="#F06669"/>
</g>
<defs>
<clipPath id="clip0_189_13">
<rect width="71" height="71" fill="white"/>
</clipPath>
</defs>
</svg>
