<svg width="81" height="69" viewBox="0 0 81 69" fill="none" xmlns="http://www.w3.org/2000/svg">
<g clip-path="url(#clip0_175_218)">
<path d="M64.8641 58.8981C78.3203 45.4242 78.3203 23.5787 64.8641 10.1049C51.4079 -3.36903 29.5911 -3.36903 16.1349 10.1049C2.67872 23.5787 2.67872 45.4242 16.1349 58.8981C29.5911 72.372 51.4079 72.372 64.8641 58.8981Z" fill="#FFD05D"/>
<path d="M58.5247 5.05544C61.9566 10.4186 63.9454 16.7976 63.9454 23.6381C63.9454 42.6903 48.5199 58.1401 29.4887 58.1401C22.8795 58.1401 16.7069 56.2742 11.464 53.0442C17.5881 62.6168 28.3043 68.9595 40.5 68.9595C59.5272 68.9595 74.9567 53.5137 74.9567 34.4574C74.9567 22.0191 68.3839 11.1228 58.5287 5.05139L58.5247 5.05544Z" fill="#FDC453"/>
<path d="M10.7283 38.1408C10.7283 20.4486 25.0502 6.10782 42.7151 6.10782C53.0433 6.10782 62.2234 11.0095 68.0726 18.615C62.5508 9.00997 52.1984 2.5459 40.3342 2.5459C22.6693 2.5459 8.34735 16.8867 8.34735 34.5789C8.34735 41.9294 10.8213 48.7011 14.9808 54.1046C12.2765 49.4053 10.7283 43.9532 10.7283 38.1408Z" fill="#FFD77F"/>
<path d="M21.9134 35.0563C21.4769 35.0563 21.0484 34.862 20.7614 34.4937C20.2642 33.8582 20.3814 32.9394 21.016 32.4415L25.984 28.5639L20.8463 25.5403C20.151 25.1315 19.9206 24.2329 20.3288 23.5367C20.7371 22.8405 21.6345 22.6098 22.3298 23.0186L29.319 27.1351C29.7353 27.382 30.0061 27.8151 30.0344 28.3008C30.0668 28.7824 29.8566 29.252 29.4766 29.5515L22.8108 34.7527C22.544 34.9591 22.2287 35.0603 21.9134 35.0603V35.0563Z" fill="#303030"/>
<path d="M59.0825 35.0565C58.7672 35.0565 58.4519 34.9553 58.1851 34.7489L51.5193 29.5477C51.1394 29.2482 50.9292 28.7827 50.9615 28.297C50.9938 27.8153 51.2606 27.3782 51.677 27.1313L58.6662 23.0148C59.3614 22.606 60.2548 22.8367 60.6671 23.5329C61.0754 24.2291 60.845 25.1236 60.1497 25.5365L55.0119 28.5601L59.9799 32.4377C60.6146 32.9356 60.7318 33.8544 60.2346 34.4899C59.9476 34.8582 59.5151 35.0525 59.0825 35.0525V35.0565Z" fill="#303030"/>
<path d="M62.2719 33.4982C59.7212 48.8144 64.2041 53.9185 64.2041 53.9185C66.8357 58.1887 72.4302 59.5123 76.6909 56.8732C80.9555 54.2382 82.2773 48.6363 79.6417 44.3701C79.6417 44.3701 77.087 38.072 62.2719 33.4982Z" fill="#7CC4E8"/>
<path d="M69.3743 57.8649C71.7552 58.5611 74.415 58.2859 76.6949 56.8773C80.9596 54.2423 82.2814 48.6403 79.6458 44.3741C79.6458 44.3741 78.5665 41.727 73.7764 38.6184C78.421 49.5875 73.2589 55.3028 69.3743 57.8649Z" fill="#62BBE8"/>
<path d="M18.3562 33.2755C3.6502 38.2015 1.24502 44.5563 1.24502 44.5563C-1.28547 48.8872 0.165719 54.4527 4.491 56.9865C8.81628 59.5204 14.3745 58.0673 16.905 53.7363C16.905 53.7363 21.2666 48.527 18.3521 33.2755H18.3562Z" fill="#7CC4E8"/>
<path d="M0.190002 50.9799C0.69125 53.4166 2.18287 55.6347 4.49103 56.9907C8.81631 59.5245 14.3745 58.0714 16.905 53.7404C16.905 53.7404 18.7362 51.5466 19.2293 45.8516C11.7308 55.1004 4.27275 53.2142 0.190002 50.9799Z" fill="#62BBE8"/>
<path d="M20.7614 39.0718C21.8811 48.9966 30.2891 56.7114 40.5 56.7114C50.7109 56.7114 59.1189 48.9966 60.2386 39.0718H20.7614Z" fill="#695342"/>
<path d="M26.8652 51.2795C30.4225 54.6471 35.2167 56.7114 40.5 56.7114C45.7833 56.7114 50.1652 54.8211 53.6699 51.7085L53.488 51.2795C40.2332 44.8073 27.0471 51.1904 26.8693 51.2795H26.8652Z" fill="#F06669"/>
</g>
<defs>
<clipPath id="clip0_175_218">
<rect width="81" height="69" fill="white"/>
</clipPath>
</defs>
</svg>
