<svg width="71" height="71" viewBox="0 0 71 71" fill="none" xmlns="http://www.w3.org/2000/svg">
<g clip-path="url(#clip0_175_203)">
<path d="M60.6048 60.6058C74.4692 46.7414 74.4692 24.2627 60.6048 10.3983C46.7404 -3.46611 24.2617 -3.46612 10.3973 10.3983C-3.46714 24.2627 -3.46714 46.7414 10.3973 60.6058C24.2617 74.4703 46.7404 74.4703 60.6048 60.6058Z" fill="#FFD05D"/>
<path d="M54.0736 5.20204C57.6097 10.7206 59.6588 17.2846 59.6588 24.3234C59.6588 43.9278 43.7654 59.8254 24.1567 59.8254C17.347 59.8254 10.9872 57.9054 5.58521 54.5818C11.8951 64.4319 22.9364 70.9584 35.5021 70.9584C55.1065 70.9584 71.0042 55.0649 71.0042 35.4563C71.0042 22.6574 64.2319 11.4453 54.0778 5.19788L54.0736 5.20204Z" fill="#FDC453"/>
<path d="M4.82297 39.2464C4.82297 21.0414 19.5836 6.28491 37.7844 6.28491C48.4259 6.28491 57.8845 11.3287 63.9112 19.1546C58.2219 9.27119 47.5513 2.61975 35.3313 2.61975C17.1304 2.61975 2.36981 17.3762 2.36981 35.5812C2.36981 43.1448 4.91876 50.1127 9.2045 55.673C6.41815 50.8374 4.82297 45.2272 4.82297 39.2464Z" fill="#FFD77F"/>
<path d="M20.9497 40.8707C20.0334 39.9835 18.5715 40.9665 19.0422 42.1493C21.6661 48.705 28.0718 53.3322 35.5646 53.3322C43.0573 53.3322 49.2506 48.8549 51.9495 42.4742C52.441 41.3122 50.9666 40.3042 50.0586 41.183C44.8649 46.2185 33.8319 53.3864 20.9497 40.8707Z" fill="#5E4939"/>
<path d="M26.335 30.4125C25.3312 27.9011 22.9322 26.2767 20.2291 26.2767C17.5261 26.2767 15.2062 27.8511 14.1733 30.2918C13.9775 30.7582 14.1317 31.2872 14.5523 31.5746C14.973 31.8619 15.5186 31.8161 15.8851 31.4621C17.8551 29.5504 20.9705 28.0177 24.619 31.5662C24.8231 31.7661 25.0897 31.8703 25.3562 31.8703C25.5603 31.8703 25.7644 31.812 25.9476 31.687C26.3683 31.408 26.5266 30.8832 26.3391 30.4125H26.335Z" fill="#303030"/>
<path d="M56.8349 30.4125C55.8312 27.9011 53.4322 26.2767 50.7291 26.2767C48.0261 26.2767 45.7062 27.8511 44.6733 30.2876C44.4734 30.7541 44.6316 31.283 45.0481 31.5704C45.4688 31.8578 46.0144 31.812 46.3809 31.4579C48.3509 29.5462 51.4622 28.0135 55.1148 31.5621C55.3189 31.762 55.5855 31.8661 55.852 31.8661C56.0561 31.8661 56.2602 31.8078 56.4434 31.6828C56.8641 31.4038 57.0224 30.879 56.8349 30.4084V30.4125Z" fill="#303030"/>
<path d="M9.40027 46.9141C12.823 46.9141 15.5977 44.1394 15.5977 40.7166C15.5977 37.2939 12.823 34.5192 9.40027 34.5192C5.97751 34.5192 3.20282 37.2939 3.20282 40.7166C3.20282 44.1394 5.97751 46.9141 9.40027 46.9141Z" fill="#F5A6AC"/>
<path d="M61.5997 46.9141C65.0224 46.9141 67.7971 44.1394 67.7971 40.7166C67.7971 37.2939 65.0224 34.5192 61.5997 34.5192C58.1769 34.5192 55.4022 37.2939 55.4022 40.7166C55.4022 44.1394 58.1769 46.9141 61.5997 46.9141Z" fill="#F5A6AC"/>
</g>
<defs>
<clipPath id="clip0_175_203">
<rect width="71" height="71" fill="white"/>
</clipPath>
</defs>
</svg>
