<svg width="71" height="71" viewBox="0 0 71 71" fill="none" xmlns="http://www.w3.org/2000/svg">
<g clip-path="url(#clip0_175_179)">
<path d="M60.6048 60.606C74.4692 46.7415 74.4692 24.2629 60.6048 10.3984C46.7404 -3.46599 24.2617 -3.46599 10.3973 10.3984C-3.46714 24.2629 -3.46714 46.7415 10.3973 60.606C24.2617 74.4704 46.7404 74.4704 60.6048 60.606Z" fill="#FFD05D"/>
<path d="M54.0736 5.20216C57.6097 10.7207 59.6588 17.2847 59.6588 24.3235C59.6588 43.9279 43.7654 59.8256 24.1567 59.8256C17.347 59.8256 10.9872 57.9055 5.58521 54.5819C11.8951 64.432 22.9364 70.9585 35.5021 70.9585C55.1065 70.9585 71.0042 55.065 71.0042 35.4564C71.0042 22.6575 64.2319 11.4454 54.0778 5.198L54.0736 5.20216Z" fill="#FDC453"/>
<path d="M4.82297 39.2465C4.82297 21.0415 19.5836 6.28503 37.7844 6.28503C48.4259 6.28503 57.8845 11.3288 63.9112 19.1547C58.2219 9.27131 47.5513 2.61987 35.3313 2.61987C17.1263 2.61987 2.36981 17.3763 2.36981 35.5813C2.36981 43.1449 4.91877 50.1129 9.2045 55.6731C6.41815 50.8376 4.82297 45.2274 4.82297 39.2465Z" fill="#FFD77F"/>
<path d="M20.9497 40.8708C20.0334 39.9837 18.5715 40.9666 19.0422 42.1494C21.6661 48.7051 28.0718 53.3323 35.5646 53.3323C43.0573 53.3323 49.2506 48.855 51.9495 42.4743C52.441 41.3123 50.9666 40.3044 50.0586 41.1832C44.8649 46.2186 33.8319 53.3865 20.9497 40.8708Z" fill="#5E4939"/>
<path d="M25.0355 29.1465C25.0355 31.583 23.8652 33.5572 22.4199 33.5572C20.9747 33.5572 19.8043 31.583 19.8043 29.1465C19.8043 26.71 20.9747 24.7358 22.4199 24.7358C23.8652 24.7358 25.0355 26.71 25.0355 29.1465Z" fill="#303030"/>
<path d="M51.1956 29.1465C51.1956 31.583 50.0252 33.5572 48.58 33.5572C47.1348 33.5572 45.9644 31.583 45.9644 29.1465C45.9644 26.71 47.1348 24.7358 48.58 24.7358C50.0252 24.7358 51.1956 26.71 51.1956 29.1465Z" fill="#303030"/>
</g>
<defs>
<clipPath id="clip0_175_179">
<rect width="71" height="71" fill="white"/>
</clipPath>
</defs>
</svg>
