<svg width="71" height="71" viewBox="0 0 71 71" fill="none" xmlns="http://www.w3.org/2000/svg">
<g clip-path="url(#clip0_188_2)">
<path d="M60.6048 60.606C74.4692 46.7415 74.4692 24.2629 60.6048 10.3984C46.7404 -3.46599 24.2617 -3.46599 10.3973 10.3984C-3.46714 24.2629 -3.46714 46.7415 10.3973 60.606C24.2617 74.4704 46.7404 74.4704 60.6048 60.606Z" fill="#FFD05D"/>
<path d="M54.0736 5.20216C57.6097 10.7207 59.6588 17.2847 59.6588 24.3235C59.6588 43.9279 43.7654 59.8256 24.1567 59.8256C17.347 59.8256 10.9872 57.9055 5.58521 54.5819C11.8951 64.432 22.9364 70.9585 35.5021 70.9585C55.1065 70.9585 71.0042 55.065 71.0042 35.4564C71.0042 22.6575 64.2319 11.4454 54.0778 5.198L54.0736 5.20216Z" fill="#FDC453"/>
<path d="M4.82297 39.2465C4.82297 21.0415 19.5836 6.28503 37.7844 6.28503C48.4259 6.28503 57.8845 11.3288 63.9112 19.1547C58.2219 9.27131 47.5513 2.61987 35.3313 2.61987C17.1263 2.61987 2.36981 17.3763 2.36981 35.5813C2.36981 43.1449 4.91876 50.1129 9.2045 55.6731C6.41815 50.8376 4.82297 45.2274 4.82297 39.2465Z" fill="#FFD77F"/>
<path d="M42.9948 49.7715C40.9748 48.0222 38.2384 47.0351 35.4979 47.0851C32.8032 47.0934 30.0918 48.0805 28.0509 49.784C27.0222 50.6544 26.16 51.7165 25.5603 52.866C24.9272 54.1113 24.5982 55.3692 24.5857 56.5978C24.5857 56.8935 24.769 57.1559 25.0438 57.2517C25.3229 57.3475 25.6311 57.2559 25.8102 57.0226C26.5474 56.073 27.2429 55.315 27.9385 54.7153C28.6882 54.078 29.4837 53.5491 30.3042 53.1367C31.941 52.3204 33.7444 51.8831 35.527 51.8748C37.3554 51.8623 39.0881 52.2704 40.6874 53.1034C42.3326 53.9447 43.8444 55.265 45.1772 57.0185C45.3105 57.1934 45.5146 57.2892 45.7228 57.2892C45.7978 57.2892 45.8728 57.2767 45.9478 57.2517C46.2268 57.1559 46.4142 56.8894 46.4101 56.5937C46.3726 54.1197 45.0939 51.5666 42.9906 49.7673L42.9948 49.7715Z" fill="#5E4939"/>
<path d="M61.0499 41.25C60.5835 41.1125 60.1336 40.9876 59.6713 40.8584C58.7092 40.5877 57.8013 40.3337 56.9266 40.0296C55.6105 39.584 54.4276 39.08 53.3114 38.4928C52.1369 37.8722 51.0707 37.1766 50.0461 36.3728C48.9257 35.5023 47.8887 34.4861 46.9307 33.5198C46.8308 33.4198 46.6767 33.3907 46.5476 33.449C46.4184 33.5073 46.3351 33.6406 46.3435 33.7822C46.4184 35.2857 47.0099 36.8393 48.0594 38.2762C49.0174 39.5715 50.296 40.6585 51.7662 41.429C53.1448 42.1538 54.69 42.5994 56.2394 42.716L56.4185 42.7285C56.6351 42.741 56.8475 42.7452 57.0557 42.7452C58.5468 42.7452 59.9004 42.462 61.0957 41.8955C61.2249 41.833 61.304 41.6998 61.2915 41.5582C61.279 41.4166 61.1832 41.2958 61.0458 41.2541L61.0499 41.25Z" fill="#303030"/>
<path d="M24.4524 33.449C24.3233 33.3907 24.1692 33.4198 24.0693 33.5198C23.1113 34.4902 22.0743 35.5065 20.9539 36.377C19.9335 37.1808 18.8631 37.8722 17.6886 38.4969C16.5724 39.0842 15.3895 39.5881 14.0734 40.0338C13.1987 40.3378 12.2908 40.5919 11.312 40.8668C10.8705 40.9917 10.4165 41.1167 9.95424 41.2541C9.81679 41.2958 9.721 41.4166 9.70851 41.5582C9.69601 41.6998 9.77515 41.8372 9.90426 41.8955C11.0996 42.4578 12.4574 42.7452 13.9443 42.7452C14.1525 42.7452 14.3649 42.741 14.5815 42.7285L14.7606 42.716C16.31 42.5994 17.8593 42.1538 19.2338 41.429C20.6998 40.6627 21.9826 39.5715 22.9406 38.2762C23.9901 36.8434 24.5857 35.2899 24.6565 33.7822C24.6649 33.6406 24.5816 33.5073 24.4524 33.449Z" fill="#303030"/>
</g>
<defs>
<clipPath id="clip0_188_2">
<rect width="71" height="71" fill="white"/>
</clipPath>
</defs>
</svg>
