<svg width="186" height="135" viewBox="0 0 186 135" fill="none" xmlns="http://www.w3.org/2000/svg">
<g opacity="0.61" clip-path="url(#clip0_169_2)">
<path opacity="0.47" d="M157.705 14.92C162.033 12.922 167.444 14.2879 169.794 17.9678C172.144 21.6476 172.169 28.8036 167.84 30.8015C163.512 32.7994 159.601 27.1427 155.454 24.885C149.672 21.7389 153.377 16.9179 157.705 14.9235V14.92Z" fill="#E1E2FE"/>
<path opacity="0.47" d="M2.87036 115.371C0.284973 111.877 -0.363449 107.541 0.177597 103.436C0.714493 99.3593 2.18066 95.079 4.23328 91.3711C6.17853 87.8563 8.99519 84.7208 9.79642 80.8057C10.8578 75.6336 8.07834 70.6616 7.43405 65.5878C6.14961 55.4893 14.1784 46.5882 24.14 41.7813C32.2307 37.8767 41.7133 36.4125 51.0141 36.5179C59.3857 36.6127 67.7407 37.8732 75.8521 39.5727C83.6703 41.2089 91.3108 43.3649 99.5048 42.6837C106.319 42.1184 112.457 39.7131 118.804 37.9189C133.958 33.6351 152.307 33.0312 166.163 39.5516C175.055 43.7371 181.279 50.5349 184.038 57.8419C186.058 63.1966 186.657 69.3519 185.178 74.7698C183.514 80.8583 177.835 86.8697 181.25 92.6317C184.175 97.5685 186.719 103.25 185.149 108.411C182.258 117.916 174.94 118.218 171.801 121.93C172.045 121.719 171.599 122.169 171.801 121.93H11.7045C8.22289 120.336 4.97255 118.218 2.87036 115.374V115.371Z" fill="#E1E2FE"/>
<path opacity="0.81" d="M24.2185 111.87C23.6279 107.972 25.0073 104.352 24.8297 100.564C24.4828 93.2778 16.611 88.2496 13.8645 81.6976C10.3911 73.4039 10.5564 64.1131 14.7772 56.0301C16.8092 52.1361 19.7787 48.516 23.8344 46.0124C30.0873 42.1535 38.2771 41.3073 45.9837 41.7954C57.4487 42.5222 69.5497 46.5777 81.0766 45.4717C87.4368 44.8607 89.3821 39.2356 92.6655 35.5277C96.3825 31.3317 101.442 28.0347 107.038 25.8436C117.342 21.8021 129.712 21.4194 140.243 25.0852C151.489 28.9967 161.29 38.5509 160.646 49.3516C160.348 54.3482 157.899 59.3131 159.031 64.2254C160.456 70.3877 166.139 76.0058 170.26 81.0269C174.812 86.5712 177.566 93.1865 178.103 99.9317C178.715 107.583 176.476 115.378 171.793 121.93H28.1709C26.0853 118.843 24.7513 115.399 24.2185 111.87Z" fill="#E1E2FE"/>
</g>
<g clip-path="url(#clip1_169_2)">
<path d="M130.472 18.874C130.472 29.3069 120.849 37.7699 110.18 37.7699C99.5105 37.7699 90.8545 29.3142 90.8545 18.8886C90.8545 8.46303 99.5033 0 110.173 0C120.842 0 130.464 8.44115 130.464 18.874H130.472Z" fill="#7144B7"/>
<path d="M130.326 16.6853C130.326 16.6853 130.959 23.1785 132.979 26.768C135.966 32.0647 138.946 38.5287 137.979 44.679L85.9996 46.1819C85.9996 46.1819 85.658 36.1211 90.4039 31.7656C95.1498 27.41 91.8284 16.2549 91.8284 16.2549L130.326 16.6926V16.6853Z" fill="#7144B7"/>
<path d="M99.4524 31.824C98.4276 35.2165 94.8591 37.128 91.4868 36.0993C88.1072 35.0706 86.2031 31.4884 87.2278 28.1032C88.2526 24.718 91.8211 22.7992 95.1934 23.8279C98.5657 24.8566 100.477 28.4388 99.4524 31.824Z" fill="#CE9FCB"/>
<path d="M104.387 41.768L104.86 61.0215L121.772 58.519L118.792 29.3872L104.387 41.768Z" fill="#E9D7E9"/>
<path d="M104.613 51.0627C104.613 51.0627 113.53 51.2305 114.359 40.6736L104.453 45.0583L104.613 51.0627Z" fill="#CE9FCB"/>
<path d="M93.8997 9.66682C92.5334 10.8268 91.6612 12.4611 91.3051 14.2193C90.2658 19.4358 88.2235 29.5258 90.0623 35.0632C92.4534 42.2641 98.275 46.8093 107.687 45.0146C107.687 45.0146 119.068 43.1469 121.278 29.1829C124.904 6.32538 105.63 -0.284545 93.8997 9.66682Z" fill="#E9D7E9"/>
<path d="M93.2892 25.8342C93.1148 26.4981 92.4389 26.8994 91.7703 26.7243C91.1089 26.5492 90.7091 25.8707 90.8836 25.1995C91.058 24.5355 91.7339 24.1343 92.4026 24.3094C93.0639 24.4845 93.4637 25.163 93.2892 25.8342Z" fill="#171717"/>
<path d="M103.791 26.0457C103.617 26.7096 102.941 27.1109 102.272 26.9358C101.611 26.7607 101.211 26.0822 101.386 25.411C101.56 24.7471 102.236 24.3458 102.905 24.5209C103.566 24.696 103.966 25.3745 103.791 26.0457Z" fill="#171717"/>
<path d="M95.3969 28.0813L94.1687 31.0507L96.1601 31.5832" stroke="#CE9FCB" stroke-width="1.03" stroke-linecap="round" stroke-linejoin="round"/>
<path d="M99.8158 20.3843C99.7576 21.2379 100.448 21.9529 101.306 21.9237C102.592 21.8799 104.474 21.9383 106.241 22.4417C106.895 22.6314 107.585 22.2885 107.796 21.6391C107.999 21.019 107.658 20.4062 107.091 20.0924C105.921 19.4358 104.082 18.4874 101.066 19.0419C100.39 19.1659 99.8594 19.6985 99.8158 20.3843Z" fill="#5D3D9B"/>
<path d="M94.5611 20.3989C94.4739 21.2306 93.907 21.9237 93.3401 21.9018C92.4752 21.858 91.1961 21.9164 89.9387 22.4052C89.4736 22.5876 89.0593 22.252 89.0085 21.6246C88.9576 21.019 89.2774 20.4281 89.7062 20.1143C90.5856 19.4796 91.9665 18.5531 93.9143 19.0929C94.3503 19.217 94.6338 19.735 94.5611 20.3989Z" fill="#5C4589"/>
<path d="M94.8954 34.5671L101.873 33.7573C101.873 33.7573 102.309 36.6245 98.8564 37.0258C95.4042 37.4271 94.8954 34.5671 94.8954 34.5671Z" fill="white"/>
<path d="M117.985 29.4601C117.985 29.4601 109.649 23.9956 113.93 13.5773C113.93 13.5773 125.464 17.0208 123.56 18.48C121.663 19.9391 117.985 29.4601 117.985 29.4601Z" fill="#7144B7"/>
<path d="M116.336 16.7144C116.336 16.7144 106.291 17.3711 87.991 16.7436C87.991 16.7436 89.0012 1.7874 106.822 0.218817C123.342 -1.23303 128.451 13.4533 124.541 26.1478L117.36 28.0374L116.328 16.7144H116.336Z" fill="#7144B7"/>
<path d="M127.252 31.2622C126.264 34.5452 122.804 36.4056 119.534 35.4061C116.263 34.4066 114.41 30.9412 115.405 27.6581C116.394 24.375 119.853 22.5146 123.124 23.5141C126.394 24.5063 128.248 27.9791 127.252 31.2622Z" fill="#E9D7E9"/>
<path d="M124.12 27.6435C124.12 27.6435 119.577 26.3376 118.371 31.3497L124.12 27.6435Z" fill="#E9D7E9"/>
<path d="M83.354 121.685L93.0639 88.125L76.1952 88.7816L69 121.685H83.354Z" fill="#E9D7E9"/>
<path d="M91.7775 60.5544C91.7775 60.5544 77.3653 61.2621 70.3155 91.5321L93.7471 102.352L91.7848 60.5617L91.7775 60.5544Z" fill="#FDAC52"/>
<path d="M91.7775 60.5545C91.7775 60.5545 78.4555 91.9115 87.8093 101.739L101.931 121.693H134.556C134.556 121.693 149.092 101.651 148.758 81.7121C148.423 61.7729 132.725 59.6718 132.725 59.6718L94.5538 60.1095L91.7775 60.5545Z" fill="#FDAC52"/>
<path d="M94.5611 60.1022C94.5611 60.1022 107.236 57.1036 110.165 57.1036C110.165 57.1036 118.283 56.4835 132.732 59.6644C132.732 59.6644 129.447 62.2909 124.636 66.588C114.998 75.1897 99.8158 71.9212 94.5611 60.1022Z" fill="#E9D7E9"/>
<path d="M86.8499 76.7218C86.8499 76.7218 81.0356 85.6518 85.8615 98.7038" stroke="#E5892C" stroke-width="1.01" stroke-linecap="round" stroke-linejoin="round"/>
<path d="M137.282 87.6436L147.973 128.653C148.888 133.22 153.518 136.007 157.966 134.664C161.673 133.548 164.027 129.893 163.519 126.041L157.399 91.9188L137.274 87.6436H137.282Z" fill="#E9D7E9"/>
<path d="M132.732 59.6644C132.732 59.6644 150.945 60.1678 155.015 67.0696C159.093 73.9713 167 96.2525 167 96.2525L136.177 101.287L132.732 59.6717V59.6644Z" fill="#FDAC52"/>
<path d="M140.058 100.666L135.487 101.476L132.71 84.2218" stroke="#E5892C" stroke-width="1.01" stroke-linecap="round" stroke-linejoin="round"/>
<path d="M108.566 121.685L153.816 134.803C157.377 135.854 162.356 132.432 163.352 128.843C164.456 124.844 161.709 117.892 157.603 117.476L144.84 116.593L111.052 114.251L108.574 121.685H108.566Z" fill="#E9D7E9"/>
<path d="M111.045 114.251C111.045 114.251 90.4984 109.319 90.4984 121.685H108.566L111.045 114.251Z" fill="#E9D7E9"/>
</g>
<defs>
<clipPath id="clip0_169_2">
<rect width="186" height="108" fill="white" transform="matrix(-1 0 0 1 186 14)"/>
</clipPath>
<clipPath id="clip1_169_2">
<rect width="98" height="135" fill="white" transform="translate(69)"/>
</clipPath>
</defs>
</svg>
